<svg width="28" height="22" viewBox="0 0 28 22" fill="none" xmlns="http://www.w3.org/2000/svg">
<path d="M4.46875 9.59089e-09H23.0312C24.1727 -7.47267e-05 25.2709 0.436637 26.1006 1.22055C26.9302 2.00446 27.4285 3.07614 27.4931 4.21575L27.5 4.46875V17.5312C27.5001 18.6727 27.0634 19.7709 26.2794 20.6006C25.4955 21.4302 24.4239 21.9285 23.2843 21.9931L23.0312 22H4.46875C3.32731 22.0001 2.22911 21.5634 1.39943 20.7794C0.569754 19.9955 0.0714982 18.9239 0.00687517 17.7843L9.59088e-09 17.5312V4.46875C-7.47267e-05 3.32731 0.436637 2.22911 1.22055 1.39943C2.00446 0.569755 3.07614 0.0714982 4.21575 0.00687517L4.46875 9.59089e-09H23.0312H4.46875ZM25.4375 7.38788L14.2313 13.2866C14.1047 13.3535 13.9657 13.3932 13.8229 13.4034C13.6802 13.4136 13.5369 13.394 13.4021 13.3458L13.2701 13.288L2.0625 7.38925V17.5312C2.06252 18.1351 2.28961 18.7169 2.69868 19.1612C3.10776 19.6054 3.66891 19.8796 4.27075 19.9292L4.46875 19.9375H23.0312C23.6354 19.9374 24.2173 19.7102 24.6616 19.3008C25.1059 18.8914 25.3799 18.33 25.4292 17.7279L25.4375 17.5312V7.38788ZM23.0312 2.0625H4.46875C3.86486 2.06252 3.28306 2.28961 2.83884 2.69868C2.39461 3.10776 2.12044 3.66891 2.07075 4.27075L2.0625 4.46875V5.05862L13.75 11.209L25.4375 5.05725V4.46875C25.4374 3.86465 25.2102 3.28266 24.8008 2.8384C24.3914 2.39414 23.83 2.12011 23.2279 2.07075L23.0312 2.0625Z" fill="#575757"/>
</svg>
