<svg xmlns="http://www.w3.org/2000/svg" width="140" height="23" viewBox="0 0 140 23">
    <g fill="#FFF" fill-rule="evenodd">
        <path d="M136.578 2.375l-.462-.001.001-.75.748.003c.361 0 .683.03.681.409 0 .409-.558.34-.968.339m1.404-.384c.001-.633-.488-.798-1.031-.8l-1.266-.002-.007 3.008.434.002.003-1.388.559.001.764 1.39.499.001-.76-1.39c.403-.013.803-.23.805-.822"/>
        <path d="M136.71 4.915a2.238 2.238 0 0 1-2.24-2.246 2.234 2.234 0 0 1 2.25-2.236c1.225.003 2.241.981 2.239 2.248a2.237 2.237 0 0 1-2.25 2.234M136.722 0a2.66 2.66 0 0 0-2.687 2.668 2.66 2.66 0 0 0 2.674 2.683 2.66 2.66 0 0 0 2.688-2.67A2.66 2.66 0 0 0 136.72 0M8.33.981L.444.963.394 21.647l13.623.032.012-5.07-5.735-.014z"/>
        <path d="M24.011 16.606c-2.191-.005-2.83-3.048-2.824-5.397.004-2.185.552-5.293 2.85-5.288 2.296.005 2.827 3.117 2.822 5.3-.006 2.35-.657 5.39-2.848 5.385M24.005.578C17.96.564 13.03 4.94 13.013 11.41c-.015 6.608 4.912 10.58 10.985 10.593 6.073.014 11.019-3.933 11.034-10.54C35.048 4.991 30.052.591 24.005.577M35.18 11.597c-.013 5.882 4.98 10.463 11.382 10.478 1.461.004 4.126-.244 5.437-.815l.018-5.395c-1.32.898-2.503 1.142-4.183.914-2.303-.208-4.573-2.686-4.567-5.47.007-2.676 1.574-5.284 4.584-5.676 1.832-.239 3.04.351 4.188 1.342l.007-5.773C50.32.65 48.664.637 46.818.632 40.237.616 35.195 5.578 35.181 11.597M73.59 1.118l-8.857-.027s-4.271 7.987-4.421 8.276l.02-8.28-7.926-.02-.05 20.725 7.926.02.02-8.45 4.235 8.437 9.203.021L67.338 11l6.252-9.882zM90.577 1.158l-16.878-.04-.013 5.447 4.408.011-.024 15.255 7.963.019.051-15.26 4.48.014zM125.884 11.58l-4.667-10.257-8.65-.02-.048 20.685 8.103.041.023-9.939 4.327 9.927 8.73.02.049-20.679-7.93-.018z"/>
        <path d="M101.017 16.676c-2.243-.005-2.896-2.952-2.89-5.3.005-2.184.564-5.349 2.916-5.343 2.353.006 2.897 3.172 2.892 5.357-.006 2.348-.674 5.292-2.918 5.286m.038-15.93C94.866.733 89.774 5.05 89.758 11.523c-.016 6.606 4.862 10.669 11.08 10.683 6.215.016 11.449-4.023 11.464-10.63.016-6.472-5.057-10.814-11.247-10.828"/>
    </g>
</svg>
