<svg width="253" height="50" viewBox="0 0 253 50" fill="none" xmlns="http://www.w3.org/2000/svg">
<path d="M66.546 28.9807C65.1753 30.3514 63.3934 30.854 61.6114 30.854C58.139 30.854 55.2148 28.5695 55.2148 24.2746C55.2148 20.3452 57.9562 17.6038 61.7028 17.6038C63.2563 17.6038 64.9012 18.1978 66.2262 19.3857L69.7443 15.6848C67.2771 13.2632 64.8098 12.3494 61.6114 12.3494C55.0777 12.3494 49.6406 16.2788 49.6406 24.2746C49.6406 32.2704 55.0777 36.1998 61.6114 36.1998C64.9468 36.1998 67.6883 35.1946 70.2926 32.6359L66.546 28.9807Z" fill="white"/>
<path d="M74.8817 3.57687V35.5144H80.4103V3.57687H74.8817Z" fill="white"/>
<path d="M98.0645 12.5322C90.8911 12.5322 86.4135 17.8323 86.4135 24.2746C86.4135 30.7627 90.7997 36.0171 98.1102 36.0171C105.421 36.0171 109.853 30.7627 109.853 24.2746C109.853 17.8323 105.238 12.5322 98.0645 12.5322V12.5322ZM98.1102 17.6038C101.857 17.6038 104.233 20.8935 104.233 24.2746C104.233 27.7014 102.177 30.8997 98.1102 30.8997C94.0437 30.8997 91.9877 27.7014 91.9877 24.2746C91.9877 20.8935 94.0894 17.6038 98.1102 17.6038Z" fill="white"/>
<path d="M115.979 12.9891V24.8229C115.979 31.8135 119.909 35.88 125.3 35.88C128.453 35.88 130.6 34.7834 132.931 32.4989L133.296 35.5601H138.276V12.9891H132.748V24.5031C132.748 27.9299 130.418 30.8084 126.991 30.8084C123.427 30.8084 121.554 28.204 121.554 24.7772V12.9891H115.979Z" fill="white"/>
<path d="M156.3 17.6495C159.819 17.6495 162.834 20.2996 162.834 24.2289C162.834 28.2954 159.819 30.854 156.3 30.854C152.737 30.854 149.904 28.1583 149.904 24.2289C149.904 20.1625 152.737 17.6495 156.3 17.6495ZM163.2 3.57687V16.0503C161.875 13.7201 158.174 12.4408 155.798 12.4408C149.219 12.4408 144.33 16.4616 144.33 24.2289C144.33 31.6308 149.31 36.017 155.935 36.017C158.676 36.017 161.463 35.1032 163.2 32.4075L163.565 35.5145H168.774V3.57687H163.2Z" fill="white"/>
<path d="M182.186 12.8977V40.3119C182.186 45.8861 179.765 49.4957 174.693 49.4957C173.048 49.4957 171.312 49.0388 169.713 47.9879L171.723 43.6473C172.683 44.1042 173.596 44.3327 174.419 44.287C176.246 44.1956 176.658 42.7792 176.658 40.3119V12.8977H182.186ZM176.155 6.59242C176.155 10.933 182.734 10.933 182.734 6.59242C182.734 2.25183 176.155 2.25183 176.155 6.59242Z" fill="white"/>
<path d="M199.708 12.5322C192.534 12.5322 188.057 17.8323 188.057 24.2746C188.057 30.7627 192.443 36.0171 199.753 36.0171C207.064 36.0171 211.496 30.7627 211.496 24.2746C211.496 17.8323 206.881 12.5322 199.708 12.5322ZM199.753 17.6038C203.5 17.6038 205.876 20.8935 205.876 24.2746C205.876 27.7014 203.82 30.8997 199.753 30.8997C195.687 30.8997 193.631 27.7014 193.631 24.2746C193.631 20.8935 195.733 17.6038 199.753 17.6038Z" fill="white"/>
<path d="M223.06 12.8977V35.5144H217.486V12.8977H223.06ZM216.983 6.6381C216.983 10.9787 223.562 10.9787 223.562 6.6381C223.562 2.29751 216.983 2.29751 216.983 6.6381Z" fill="white"/>
<path d="M252.407 35.5145V23.6807C252.407 16.5987 248.157 12.6236 242.857 12.6236C240.024 12.6236 237.74 13.7659 235.455 16.0047L235.09 12.9434H230.11V35.5145H235.638V24.0005C235.638 20.5737 237.968 17.6952 241.395 17.6952C244.959 17.6952 246.832 20.2996 246.832 23.7264V35.5145H252.407Z" fill="white"/>
<path d="M12.8725 0L0 22.5984L12.8725 45.1968L38.0934 45.1536L34.9763 39.7547L15.9759 39.6134L6.29965 22.5982L15.9759 5.58311L34.9763 5.44185L38.0934 0.0429669L12.8725 0Z" fill="#17C6F6"/>
<path d="M19.4436 11.306L13.0927 22.5984L19.4436 33.8908L31.4955 33.8699L28.3675 28.3079H22.5013L19.3989 22.5987L22.5013 16.8896H28.3675L31.4955 11.3277L19.4436 11.306Z" fill="#17C6F6"/>
<path d="M32.91 11.306L39.2609 22.5984L32.91 33.8908L20.8582 33.8699L23.9862 28.3079H29.8524L32.9547 22.5987L29.8524 16.8896H23.9862L20.8582 11.3277L32.91 11.306Z" fill="#17C6F6"/>
</svg>
