<svg width="170" height="33" viewBox="0 0 170 33" fill="none" xmlns="http://www.w3.org/2000/svg">
<path d="M44.8198 17.0973C43.8966 18.0112 42.6965 18.3463 41.4963 18.3463C39.1575 18.3463 37.1881 16.8231 37.1881 13.9596C37.1881 11.3398 39.0344 9.51202 41.5578 9.51202C42.6041 9.51202 43.712 9.90804 44.6044 10.7001L46.9739 8.23258C45.3122 6.61804 43.6504 6.00879 41.4963 6.00879C37.0957 6.00879 33.4337 8.6286 33.4337 13.9596C33.4337 19.2906 37.0957 21.9104 41.4963 21.9104C43.7427 21.9104 45.5891 21.2402 47.3432 19.5343L44.8198 17.0973Z" fill="white"/>
<path d="M50.4341 0.159668V21.4532H54.1577V0.159668H50.4341Z" fill="white"/>
<path d="M66.0481 6.13037C61.2167 6.13037 58.2009 9.66407 58.2009 13.9593C58.2009 18.2851 61.1552 21.7883 66.0789 21.7883C71.0026 21.7883 73.9876 18.2851 73.9876 13.9593C73.9876 9.66407 70.8795 6.13037 66.0481 6.13037ZM66.0789 9.51175C68.6023 9.51175 70.2025 11.7051 70.2025 13.9593C70.2025 16.2441 68.8177 18.3765 66.0789 18.3765C63.34 18.3765 61.9553 16.2441 61.9553 13.9593C61.9553 11.7051 63.3708 9.51175 66.0789 9.51175Z" fill="white"/>
<path d="M78.114 6.43506V14.325C78.114 18.9858 80.7605 21.697 84.3917 21.697C86.5151 21.697 87.9614 20.9659 89.5309 19.4427L89.7771 21.4837H93.1313V6.43506H89.4078V14.1117C89.4078 16.3964 87.8384 18.3156 85.5304 18.3156C83.13 18.3156 81.8683 16.5792 81.8683 14.2945V6.43506H78.114Z" fill="white"/>
<path d="M105.271 9.54224C107.64 9.54224 109.672 11.3091 109.672 13.9289C109.672 16.6401 107.64 18.346 105.271 18.346C102.871 18.346 100.963 16.5487 100.963 13.9289C100.963 11.2177 102.871 9.54224 105.271 9.54224ZM109.918 0.159668V8.47604C109.025 6.92243 106.533 6.06947 104.932 6.06947C100.501 6.06947 97.2084 8.7502 97.2084 13.9289C97.2084 18.8639 100.563 21.7883 105.025 21.7883C106.871 21.7883 108.748 21.1791 109.918 19.3818L110.164 21.4532H113.672V0.159668H109.918Z" fill="white"/>
<path d="M122.705 6.37436V24.6521C122.705 28.3686 121.074 30.7751 117.659 30.7751C116.551 30.7751 115.381 30.4705 114.304 29.7699L115.658 26.8759C116.305 27.1805 116.92 27.3328 117.474 27.3024C118.705 27.2414 118.982 26.2971 118.982 24.6521V6.37436H122.705ZM118.643 2.17048C118.643 5.06446 123.075 5.06446 123.075 2.17048C123.075 -0.723494 118.643 -0.723494 118.643 2.17048Z" fill="white"/>
<path d="M134.506 6.13037C129.675 6.13037 126.659 9.66407 126.659 13.9593C126.659 18.2851 129.614 21.7883 134.537 21.7883C139.461 21.7883 142.446 18.2851 142.446 13.9593C142.446 9.66407 139.338 6.13037 134.506 6.13037ZM134.537 9.51175C137.061 9.51175 138.661 11.7051 138.661 13.9593C138.661 16.2441 137.276 18.3765 134.537 18.3765C131.798 18.3765 130.414 16.2441 130.414 13.9593C130.414 11.7051 131.829 9.51175 134.537 9.51175Z" fill="white"/>
<path d="M150.234 6.37417V21.4533H146.48V6.37417H150.234ZM146.142 2.20075C146.142 5.09473 150.573 5.09473 150.573 2.20075C150.573 -0.69322 146.142 -0.69322 146.142 2.20075Z" fill="white"/>
<path d="M170 21.4533V13.5634C170 8.84168 167.138 6.19141 163.568 6.19141C161.66 6.19141 160.122 6.95298 158.583 8.44566L158.337 6.40464H154.983V21.4533H158.706V13.7767C158.706 11.492 160.276 9.57279 162.584 9.57279C164.984 9.57279 166.246 11.3092 166.246 13.5939V21.4533H170Z" fill="white"/>
<path d="M9.12381 0L0 16L9.12381 32L27 31.9694L24.7906 28.1469L11.3235 28.0469L4.46509 15.9999L11.3235 3.95293L24.7906 3.85291L27 0.0304212L9.12381 0Z" fill="#4F5AD0"/>
<path d="M13.8315 8L9 16L13.8315 24L23 23.9852L20.6203 20.0448H16.1576L13.7975 16.0002L16.1576 11.9556H20.6203L23 8.01532L13.8315 8Z" fill="#4F5AD0"/>
<path d="M23.5136 8L28 16L23.5136 24L15 23.9852L17.2097 20.0448H21.3536L23.5452 16.0002L21.3536 11.9556H17.2097L15 8.01532L23.5136 8Z" fill="#4F5AD0"/>
<path d="M38.313 32.09C37.941 32.09 37.593 32.063 37.269 32.009C36.951 31.955 36.675 31.877 36.441 31.775V30.704C36.705 30.812 36.99 30.899 37.296 30.965C37.602 31.031 37.902 31.064 38.196 31.064C38.616 31.064 38.925 31.025 39.123 30.947C39.321 30.869 39.42 30.692 39.42 30.416C39.42 30.242 39.378 30.104 39.294 30.002C39.21 29.9 39.063 29.81 38.853 29.732C38.649 29.648 38.358 29.555 37.98 29.453C37.374 29.285 36.948 29.075 36.702 28.823C36.456 28.571 36.333 28.223 36.333 27.779C36.333 27.245 36.528 26.834 36.918 26.546C37.308 26.258 37.875 26.114 38.619 26.114C38.967 26.114 39.291 26.138 39.591 26.186C39.891 26.234 40.134 26.291 40.32 26.357V27.428C39.828 27.242 39.315 27.149 38.781 27.149C38.403 27.149 38.106 27.191 37.89 27.275C37.674 27.353 37.566 27.521 37.566 27.779C37.566 27.929 37.605 28.049 37.683 28.139C37.761 28.229 37.893 28.31 38.079 28.382C38.271 28.454 38.538 28.535 38.88 28.625C39.354 28.751 39.72 28.901 39.978 29.075C40.236 29.249 40.413 29.447 40.509 29.669C40.611 29.891 40.662 30.14 40.662 30.416C40.662 30.92 40.47 31.325 40.086 31.631C39.702 31.937 39.111 32.09 38.313 32.09ZM46.1852 32V26.204H50.3432V27.149H47.4002V28.634H50.0102V29.57H47.4002V31.064H50.3432V32H46.1852ZM58.6043 32.09C57.6323 32.09 56.8883 31.829 56.3723 31.307C55.8563 30.779 55.5983 30.062 55.5983 29.156C55.5983 28.196 55.8473 27.449 56.3453 26.915C56.8493 26.381 57.5993 26.114 58.5953 26.114C58.9433 26.114 59.2553 26.141 59.5313 26.195C59.8133 26.243 60.0773 26.312 60.3233 26.402V27.464C59.8133 27.254 59.2673 27.149 58.6853 27.149C58.0253 27.149 57.5513 27.314 57.2633 27.644C56.9753 27.974 56.8313 28.478 56.8313 29.156C56.8313 30.428 57.4553 31.064 58.7033 31.064C58.9853 31.064 59.2643 31.04 59.5403 30.992C59.8163 30.938 60.0803 30.86 60.3323 30.758V31.829C60.0863 31.907 59.8223 31.97 59.5403 32.018C59.2643 32.066 58.9523 32.09 58.6043 32.09ZM68.4018 32.09C67.6038 32.09 66.9708 31.898 66.5028 31.514C66.0408 31.124 65.8098 30.56 65.8098 29.822V26.204H67.0248V29.732C67.0248 30.176 67.1448 30.509 67.3848 30.731C67.6248 30.947 67.9638 31.055 68.4018 31.055C68.8398 31.055 69.1758 30.947 69.4098 30.731C69.6498 30.509 69.7698 30.176 69.7698 29.732V26.204H70.9848V29.822C70.9848 30.56 70.7538 31.124 70.2918 31.514C69.8298 31.898 69.1998 32.09 68.4018 32.09ZM76.6432 32V26.204H79.4242C80.0902 26.204 80.5792 26.381 80.8912 26.735C81.2032 27.083 81.3592 27.554 81.3592 28.148C81.3592 28.538 81.2572 28.874 81.0532 29.156C80.8552 29.438 80.5732 29.642 80.2072 29.768C80.3032 29.846 80.3782 29.93 80.4322 30.02C80.4922 30.11 80.5522 30.23 80.6122 30.38L81.3142 32H80.0542L79.3702 30.443C79.3102 30.311 79.2442 30.218 79.1722 30.164C79.1002 30.11 78.9802 30.083 78.8122 30.083H77.8582V32H76.6432ZM77.8582 29.075H79.1092C79.4272 29.075 79.6762 29.006 79.8562 28.868C80.0362 28.724 80.1262 28.484 80.1262 28.148C80.1262 27.824 80.0482 27.587 79.8922 27.437C79.7362 27.287 79.4992 27.212 79.1812 27.212H77.8582V29.075ZM86.8866 32V26.204H88.1016V32H86.8866ZM95.2298 32V27.14H93.4478V26.204H98.2178V27.14H96.4448V32H95.2298ZM105.379 32V29.858L103.3 26.204H104.569L105.991 28.823L107.413 26.204H108.673L106.594 29.858V32H105.379Z" fill="#848CE9"/>
</svg>
