<?xml version="1.0" encoding="UTF-8"?>
<svg width="303px" height="222px" viewBox="0 0 303 222" version="1.1" xmlns="http://www.w3.org/2000/svg" xmlns:xlink="http://www.w3.org/1999/xlink">
    <!-- Generator: Sketch 53 (72520) - https://sketchapp.com -->
    <title>two pane- No folder and article</title>
    <desc>Created with Sketch.</desc>
    <g id="two-pane--No-folder-and-article" stroke="none" stroke-width="1" fill="none" fill-rule="evenodd">
        <g id="Group-6" transform="translate(4.000000, 4.000000)">
            <path d="M83.3823978,144.849709 C88.5398699,138.558447 94.180855,132.840388 102.267435,129.638835 C113.53539,125.179029 129.225037,127.373981 134.894052,114.337087 C136.659926,110.275728 137.52184,105.878835 139.196617,101.754563 C143.316989,91.6116505 157.892454,101.754563 168.452658,98.9584466 C185.319554,94.4776699 199.796914,85.4112621 205.444907,102.495534 C209.649368,115.259806 202.200465,126.017864 200.336487,138.39767 C198.773829,148.778252 203.041357,156.048155 206.243755,165.492039 C208.556208,172.328544 209.144833,180.521165 204.660074,186.183301 C201.6679,189.958058 196.860799,191.950291 192.046691,192.544466 C183.567695,193.59301 175.880539,191.006602 167.43658,193.460194 C160.092788,195.592233 153.709015,200.135922 146.477342,202.596505 C129.197007,208.48932 113.927807,195.976699 97.5234015,193.075728 C89.8923048,191.726602 37.259461,216.143689 41.8002788,194.872233 C43.4890706,186.980194 55.3036059,171.52466 61.8765799,167.44932 C70.9862454,161.801165 76.7813941,152.881553 83.3823978,144.849709 Z" id="Path" fill="#EBEFF3" fill-rule="nonzero"></path>
            <g id="Group" opacity="0.5" transform="translate(226.806691, 0.000000)">
                <ellipse id="Oval" fill="#CFD7DF" fill-rule="nonzero" cx="15.5775279" cy="15.3786408" rx="15.2481784" ry="15.2108738"></ellipse>
                <ellipse id="Oval" fill="#FFFFFF" fill-rule="nonzero" cx="15.5775279" cy="15.3786408" rx="12.066803" ry="12.0372816"></ellipse>
                <path d="M0.280297398,15.3786408 C0.280297398,6.95088273 7.12910077,0.118834951 15.5775279,0.118834951" id="Path" stroke="#92A2B1" stroke-width="0.5"></path>
                <path d="M26.3970074,26.1646602 C23.5280007,29.0280795 19.635931,30.636852 15.5775279,30.636852 C11.5191247,30.636852 7.62705511,29.0280795 4.75804833,26.1646602" id="Path" stroke="#92A2B1" stroke-width="0.5"></path>
                <path d="M15.5775279,5.60621359 L15.5775279,3.33436893" id="Path" stroke="#92A2B1" stroke-width="0.5"></path>
                <path d="M15.5775279,25.1440777 L15.5775279,27.4159223" id="Path" stroke="#92A2B1" stroke-width="0.5"></path>
                <path d="M27.6443309,15.3786408 L25.3669145,15.3786408" id="Path" stroke="#92A2B1" stroke-width="0.5"></path>
                <path d="M5.78814126,15.3786408 L3.51072491,15.3786408" id="Path" stroke="#92A2B1" stroke-width="0.5"></path>
                <path d="M24.1125836,23.8928155 L22.5008736,22.2850485" id="Path" stroke="#92A2B1" stroke-width="0.5"></path>
                <path d="M8.65418216,8.47223301 L7.04247212,6.86446602" id="Path" stroke="#92A2B1" stroke-width="0.5"></path>
                <path d="M7.04247212,23.8928155 L8.65418216,22.2850485" id="Path" stroke="#92A2B1" stroke-width="0.5"></path>
                <path d="M22.5008736,8.47223301 L24.1125836,6.86446602" id="Path" stroke="#92A2B1" stroke-width="0.5"></path>
                <polyline id="Path" stroke="#92A2B1" stroke-width="0.5" points="10.7283829 12.4706796 15.7036617 15.8959223 22.2486059 19.1883495"></polyline>
            </g>
            <g id="Group" transform="translate(-0.000000, 158.679612)">
                <rect id="Rectangle" fill="#B2E4D9" fill-rule="nonzero" x="12.9357249" y="12.4497087" width="42.5701673" height="42.4660194"></rect>
                <rect id="Rectangle" fill="#4BC1A7" fill-rule="nonzero" x="55.5058922" y="12.4497087" width="25.8714498" height="42.4660194"></rect>
                <path d="M12.9357249,54.9157282 L42.2618401,54.9157282" id="Path" stroke="#1AB394" stroke-width="0.5"></path>
                <polyline id="Path" stroke="#1AB394" stroke-width="0.5" points="12.9287175 12.4497087 0.630669145 0.174757282 47.4893866 0.174757282 56.2977323 8.9615534"></polyline>
                <polyline id="Path" stroke="#1AB394" stroke-width="0.5" points="81.377342 12.4497087 91.2297955 2.62135922 65.5965985 2.62135922 55.5058922 12.4497087 55.5058922 19.4469903"></polyline>
                <path d="M47.0058736,54.9157282 L67.2994052,54.9157282" id="Path" stroke="#1AB394" stroke-width="0.5"></path>
                <path d="M81.2301859,20.3836893 L81.2301859,38.8100971" id="Path" stroke="#1AB394" stroke-width="0.5"></path>
                <path d="M55.5058922,36.3215534 L55.5058922,54.7479612" id="Path" stroke="#1AB394" stroke-width="0.5"></path>
                <path d="M19.1373048,12.2260194 L44.2799814,12.2260194" id="Path" stroke="#1AB394" stroke-width="0.5"></path>
                <path d="M16.7127323,43.6473786 L16.7127323,29.4431068" id="Path" stroke="#1AB394" stroke-width="0.5"></path>
                <path d="M35.7939777,49.0858252 L20.9522305,49.0858252" id="Path" stroke="#1AB394" stroke-width="0.5"></path>
                <path d="M70.4667658,49.0858252 L63.0458922,49.0858252" id="Path" stroke="#FFFFFF" stroke-width="0.5"></path>
                <path d="M44.2799814,29.7506796 L44.2799814,42.7386408" id="Path" stroke="#1AB394" stroke-width="0.5"></path>
                <path d="M30.0408736,21.5930097 L42.1567286,21.5930097" id="Path" stroke="#1AB394" stroke-width="0.5"></path>
                <polyline id="Path" stroke="#1AB394" stroke-width="0.5" points="76.9906877 54.9157282 81.377342 54.9157282 81.377342 49.9945631"></polyline>
                <path d="M60.0957621,20.7401942 L60.0957621,42.2702913" id="Path" stroke="#FFFFFF" stroke-width="0.5"></path>
            </g>
            <path d="M116.248829,214.59534 L181.607175,214.59534" id="Path" stroke="#92A2B1" stroke-width="0.5"></path>
            <polygon id="Rectangle" fill="#CFD7DF" fill-rule="nonzero" opacity="0.5" transform="translate(235.185716, 65.980516) rotate(10.680000) translate(-235.185716, -65.980516) " points="231.096263 44.5937453 239.294273 44.5900924 239.275168 87.3672875 231.077158 87.3709403"></polygon>
            <rect id="Rectangle" fill="#CFD7DF" fill-rule="nonzero" opacity="0.5" x="241.578364" y="77.543301" width="29.5503532" height="9.82834951"></rect>
            <rect id="Rectangle" fill="#CFD7DF" fill-rule="nonzero" opacity="0.5" x="241.578364" y="63.3040777" width="24.988513" height="8.31145631"></rect>
            <g id="Group" opacity="0.5" transform="translate(226.806691, 47.533981)" stroke="#92A2B1" stroke-width="0.5">
                <path d="M6.75516729,0.482330097 L16.4394424,2.30679612" id="Path"></path>
                <path d="M6.33472119,2.73320388 L16.0119888,4.5576699" id="Path"></path>
                <path d="M0.735780669,32.3440777 L10.4130483,34.1685437" id="Path"></path>
                <path d="M0.308327138,34.6019417 L9.9855948,36.4194175" id="Path"></path>
            </g>
            <rect id="Rectangle" fill="#CFD7DF" fill-rule="nonzero" opacity="0.5" x="224.178903" y="42.5079612" width="1.63973978" height="45.8283495"></rect>
            <rect id="Rectangle" fill="#CFD7DF" fill-rule="nonzero" opacity="0.5" x="274.247026" y="42.5079612" width="1.63973978" height="45.8283495"></rect>
            <rect id="Rectangle" fill="#92A2B1" fill-rule="nonzero" opacity="0.5" x="241.578364" y="72.7409709" width="30.9518401" height="3.65592233"></rect>
            <ellipse id="Oval" stroke="#FFFFFF" stroke-width="0.5" opacity="0.5" cx="246.000056" cy="67.5192233" rx="2.77494424" ry="2.76815534"></ellipse>
            <ellipse id="Oval" stroke="#FFFFFF" stroke-width="0.5" opacity="0.5" cx="264.513699" cy="82.4574757" rx="2.77494424" ry="2.76815534"></ellipse>
            <path d="M224.178903,42.5079612 L224.178903,66.5196117" id="Path" stroke="#92A2B1" stroke-width="0.5" fill="#FFFFFF" fill-rule="nonzero" opacity="0.5"></path>
            <path d="M209.49132,88.4761165 L294.799833,88.4761165" id="Path" stroke="#92A2B1" stroke-width="0.5" opacity="0.5"></path>
            <path d="M225.818643,87.4275728 L225.818643,78.4869903" id="Path" stroke="#92A2B1" stroke-width="0.5" fill="#FFFFFF" fill-rule="nonzero" opacity="0.5"></path>
            <path d="M275.886766,87.4275728 L275.886766,69.5464078" id="Path" stroke="#92A2B1" stroke-width="0.5" fill="#FFFFFF" fill-rule="nonzero" opacity="0.5"></path>
            <path d="M266.566877,63.3040777 L260.862825,63.3040777" id="Path" stroke="#92A2B1" stroke-width="0.5" fill="#FFFFFF" fill-rule="nonzero" opacity="0.5"></path>
            <path d="M247.282416,77.8019417 L241.578364,77.8019417" id="Path" stroke="#92A2B1" stroke-width="0.5" fill="#FFFFFF" fill-rule="nonzero" opacity="0.5"></path>
            <g id="Group" transform="translate(83.830855, 52.145631)">
                <g id="Path">
                    <path d="M71.39104,154.119235 C72.034112,152.900144 72.039136,151.383838 70.768064,150.492189 C70.0598467,150.055924 69.237057,149.843528 68.406784,149.882643 C67.0345106,149.917712 65.6770585,150.176324 64.387584,150.648353 C63.513717,150.938834 62.6719565,151.318649 61.875584,151.781805 L53.420192,156.864707 C52.60128,157.368464 51.707008,157.947783 51.335232,158.799132 C51.2700705,158.939137 51.221184,159.086193 51.189536,159.2374 C50.903168,160.62273 52.169216,161.38844 53.540768,161.685656 C54.91232,161.982872 56.2688,161.746107 57.67552,161.685656 C59.865984,161.605055 60.68992,160.254988 62.106688,158.849507 C62.9308336,158.077164 63.9208982,157.504961 65.000512,157.177036 C66.6936,156.557416 68.683104,156.572528 70.195328,155.49449 C70.6935074,155.133753 71.1025597,154.663279 71.39104,154.119235 Z" fill="#273139" fill-rule="nonzero"></path>
                    <path d="M70.803232,152.940445 C71.031452,153.161229 71.1844044,153.448569 71.24032,153.761568 C71.2866996,153.968249 71.3102865,154.179415 71.310656,154.391263 C71.3094522,154.514231 71.3010645,154.637022 71.285536,154.759005 C71.285536,154.859757 71.260416,154.900057 71.250368,154.970583 C71.159936,155.47434 71.079552,156.023434 71.01424,156.577566 C70.948928,157.131698 70.908736,157.695905 70.858496,158.280263 C70.808256,158.86462 70.768064,159.459053 70.68768,160.073636 L70.68768,160.073636 C70.6601514,160.290281 70.5476833,160.487004 70.3751483,160.6203 C70.2026132,160.753596 69.9842276,160.812481 69.768288,160.783932 C69.4995155,160.747353 69.2652723,160.582001 69.140288,160.340626 C68.8548766,159.771688 68.6162809,159.180327 68.42688,158.572441 C68.2227223,157.957855 68.0681554,157.32781 67.964672,156.688392 C67.8463383,156.023307 67.7874912,155.348952 67.788832,154.673367 L67.788832,154.436601 C67.7860766,154.409805 67.7860766,154.382796 67.788832,154.356 C67.788832,154.290512 67.788832,154.199836 67.788832,154.083972 C67.8152668,153.751484 67.8932378,153.425161 68.019936,153.11676 C68.1786107,152.74201 68.4813663,152.447304 68.8596452,152.299377 C69.2379242,152.15145 69.6597261,152.162815 70.029536,152.3309 C70.1707106,152.392115 70.3012879,152.475434 70.416384,152.57774 L70.803232,152.940445 Z" fill="#273139" fill-rule="nonzero"></path>
                    <path d="M71.411136,3.34494253 C74.2201576,3.72087995 76.7446644,5.25684121 78.3744,7.58153391 C81.418944,11.7274491 81.36368,16.986666 80.0072,21.7421265 C79.660544,22.9511418 78.806464,24.9963929 79.946912,26.0442062 C82.458912,28.3362978 90.185824,22.0141549 91.657856,23.7269267 C92.803328,25.0417309 89.95472,30.9356809 84.910624,33.4443878 C79.133024,36.3258744 70.843424,34.562727 68.65296,30.2102717 C66.397184,25.7268396 71.76784,20.764839 69.215648,17.2183939 C66.779008,13.8180382 60.458816,16.4174213 59.33344,13.95909 C57.861408,10.7400866 62.880384,6.24657943 65.116064,4.8360615 C66.9812186,3.62852074 69.2042405,3.10195168 71.411136,3.34494253 L71.411136,3.34494253 Z" fill="#273139" fill-rule="nonzero"></path>
                    <path d="M58.5296,8.5638589 C59.525234,8.91606887 60.4226135,9.50154484 61.147104,10.2715931 C62.5239852,11.7299937 63.1782206,13.729413 62.930624,15.7222374 C62.9009273,15.9716842 62.8556219,16.2190125 62.794976,16.4627593 C64.6151889,15.1224443 65.170043,12.6410084 64.0947751,10.6497572 C63.0195071,8.65850609 60.6438628,7.76808442 58.5296,8.5638589 L58.5296,8.5638589 Z" fill="#FF5959" fill-rule="nonzero"></path>
                    <path d="M41.493216,51.3378153 C41.5749829,52.1331117 41.6990853,52.9234574 41.864992,53.7054704 C43.98512,52.1690134 46.316256,49.9877481 46.888992,47.816558 C45.276288,47.3531021 42.623616,50.4260162 41.493216,51.3378153 Z" fill="#92A2B1" fill-rule="nonzero"></path>
                    <path d="M45.356672,32.8952933 L26.707584,53.4435171" stroke="#273139" stroke-width="0.8" stroke-linecap="round" stroke-linejoin="round"></path>
                    <path d="M46.92416,47.0810737 L27.632,62.3045923" stroke="#273139" stroke-width="0.8" stroke-linecap="round" stroke-linejoin="round"></path>
                    <path d="M26.466432,62.2491791 C19.739296,55.8615478 17.423232,54.0026867 9.440096,45.6252177" stroke="#273139" stroke-width="0.8" stroke-linecap="round" stroke-linejoin="round"></path>
                    <path d="M13.198048,43.645455 C13.198048,43.645455 19.387616,50.1086497 26.104704,54.1588512 C27.1891414,54.9244904 27.5098151,56.3943851 26.843232,57.5440942" stroke="#273139" stroke-width="0.8" stroke-linecap="round" stroke-linejoin="round"></path>
                    <path d="M29.706912,48.7283571 C32.721312,49.4991044 34.278752,52.6576571 33.605536,59.6296458" stroke="#273139" stroke-width="0.8" stroke-linecap="round" stroke-linejoin="round"></path>
                    <path d="M9.666176,45.2423628 C7.741984,45.3380765 3.963936,45.2423628 2.089984,44.7940196 C1.63591252,44.687323 1.19460958,44.5319432 0.773696,44.3305637 L0.738528,44.3305637 C0.435798244,44.1800703 0.277279893,43.8395007 0.35668092,43.5101825 C0.436081946,43.1808643 0.732252649,42.9505164 1.070112,42.9553087 L5.732384,42.9553087" stroke="#273139" stroke-width="0.8" stroke-linecap="round" stroke-linejoin="round"></path>
                    <path d="M7.827392,43.7109433 C6.78512428,43.5714483 5.84497803,43.0109332 5.22496,42.1593736 C5.05365399,41.9159411 5.04820968,41.5922354 5.21123217,41.3431495 C5.37425466,41.0940636 5.67259122,40.9702523 5.963488,41.0309593 C6.872832,41.2324618 12.293728,43.2474874 13.198048,43.645455" stroke="#273139" stroke-width="0.8" stroke-linecap="round" stroke-linejoin="round"></path>
                    <path d="M41.493216,51.3378153 C41.5749829,52.1331117 41.6990853,52.9234574 41.864992,53.7054704 C43.98512,52.1690134 46.316256,49.9877481 46.888992,47.816558 C45.276288,47.3531021 42.623616,50.4260162 41.493216,51.3378153 Z" fill="#231F20" fill-rule="nonzero"></path>
                    <g transform="translate(46.723200, 72.037166)" fill-rule="nonzero">
                        <path d="M21.6032,23.6765511 C20.965152,37.3333872 19.804608,50.3756406 22.608,64.5311956 C22.813984,65.5840465 22.994848,66.6419349 23.1104,67.7048609 L24.019744,75.4677472 L24.019744,75.5181228 C24.1933137,76.2143495 24.1933137,76.9427106 24.019744,77.6389373 C23.622848,79.1804319 22.010144,79.8151649 20.578304,80.0166675 C19.231872,80.2080949 17.061504,80.4045599 16.12704,79.1199811 C15.7966627,78.6564815 15.559469,78.1329044 15.428704,77.5784865 L6.5312,48.0785114 L6.55632,48.0785114 C6.50606794,47.9046551 6.46580973,47.7280499 6.435744,47.5495671 L6.435744,47.5495671 C6.435744,47.5495671 -2.406496,18.2107941 0.798816,7.55634609 C0.839008,7.41529429 0.884224,7.28431763 0.92944,7.1483034 C2.17623535,3.55517017 5.3273471,0.966681448 9.08608329,0.448008155 C12.8448195,-0.0706651379 16.5761202,1.5681098 18.744544,4.68997214 L18.794784,4.76049803 C18.960576,5.00733867 19.11632,5.26425444 19.262016,5.52117021 L19.322304,5.63703418 C19.94443,7.00563369 20.3544271,8.46148564 20.538112,9.95422658 C21.030464,13.1681924 21.90464,16.9967411 21.6032,23.6765511 Z" fill="#273139"></path>
                        <path d="M18.794784,4.77561073 C18.960576,5.02245137 19.11632,5.27936713 19.262016,5.5362829 C19.1316265,5.2679205 18.9751229,5.01312649 18.794784,4.77561073 Z" fill="#34479D"></path>
                    </g>
                    <path d="M46.62272,152.985783 C47.265792,151.766692 47.270816,150.255423 45.999744,149.358737 C45.2915267,148.922472 44.468737,148.710076 43.638464,148.749192 C42.2661906,148.78426 40.9087385,149.042872 39.619264,149.514901 C38.7459312,149.806756 37.9043073,150.186509 37.107264,150.648353 L28.6368,155.736293 C27.817888,156.240049 26.923616,156.814332 26.55184,157.66568 C26.4866785,157.805685 26.437792,157.952741 26.406144,158.103948 C26.114752,159.489278 27.410944,160.254988 28.757376,160.557242 C30.103808,160.859495 31.480384,160.612655 32.892128,160.557242 C35.082592,160.471603 35.906528,159.121536 37.318272,157.716056 C38.1439037,156.945727 39.1334764,156.373809 40.212096,156.043584 C41.905184,155.423964 43.899712,155.439077 45.406912,154.366075 C45.915249,154.008757 46.3319022,153.535735 46.62272,152.985783 L46.62272,152.985783 Z" fill="#273139" fill-rule="nonzero"></path>
                    <path d="M46.034912,151.806993 C46.263132,152.027777 46.4160844,152.315117 46.472,152.628116 C46.5189822,152.834611 46.5409118,153.046041 46.537312,153.257811 C46.5445386,153.380285 46.5445386,153.50308 46.537312,153.625554 C46.537312,153.726305 46.512192,153.766605 46.49712,153.837131 C46.406688,154.340888 46.326304,154.889982 46.266016,155.444114 C46.205728,155.998246 46.160512,156.562453 46.110272,157.146811 C46.060032,157.731168 46.01984,158.325601 45.939456,158.940184 L45.939456,158.940184 C45.9131612,159.156414 45.8017433,159.35313 45.630006,159.486539 C45.4582688,159.619947 45.2404672,159.678975 45.025088,159.65048 C44.7556709,159.615556 44.5207368,159.449715 44.397088,159.207174 C43.8251799,158.0556 43.4288934,156.824474 43.221472,155.554941 C43.1028982,154.889887 43.0440491,154.21551 43.045632,153.539915 L43.045632,153.303149 C43.045632,153.277962 43.045632,153.257811 43.045632,153.222548 C43.045632,153.187285 43.045632,153.066384 43.045632,152.955557 C43.0735598,152.621153 43.1532224,152.293145 43.28176,151.983308 C43.4404347,151.608558 43.7431903,151.313852 44.1214692,151.165925 C44.4997482,151.017998 44.9215501,151.029363 45.29136,151.197448 C45.4315427,151.260524 45.5618508,151.343671 45.678208,151.444288 L46.034912,151.806993 Z" fill="#273139" fill-rule="nonzero"></path>
                    <path d="M34.43952,158.642967 C32.6882505,159.396894 30.7221428,159.481127 28.91312,158.879733" stroke="#FFFFFF" stroke-width="0.5" stroke-linecap="round" stroke-linejoin="round"></path>
                    <path d="M33.570368,117.0075 L33.665824,117.823586 L37.10224,146.593114 L37.10224,146.593114 C37.1097442,146.901151 37.1535906,147.207214 37.232864,147.504913 C37.2305135,147.51485 37.2305135,147.525201 37.232864,147.535139 C37.2628454,148.09273 37.3975002,148.63964 37.62976,149.147159 C38.297952,150.582865 40.478368,150.794443 41.839872,150.859931 C43.276736,150.925419 44.984896,150.597978 45.658112,149.157234 C45.9634314,148.509862 46.1049264,147.797016 46.07008,147.081758 L46.07008,147.031382 L45.758592,136.03438 C45.4246937,124.629245 47.9446906,113.321856 53.088608,103.144124 C56.002528,97.3912259 57.434368,93.4720011 58.358784,90.1069083 C60.739353,85.7419892 59.6067133,80.2897868 55.686016,77.2409697 C51.274944,73.8204637 44.130816,72.4552838 40.699424,76.8782651 C40.513536,77.1150306 39.986016,78.5960744 39.810176,78.8681029 C34.369184,87.2002338 33.93712,110.695433 33.63568,115.904274 C33.580416,116.619608 33.570368,117.0075 33.570368,117.0075 Z" fill="#273139" fill-rule="nonzero"></path>
                    <path d="M43.678656,14.1051794 C42.538208,18.7850764 43.743968,25.5354122 48.411264,26.6990895 C53.07856,27.8627668 58.42912,22.371822 59.569568,17.6969625 C60.1180763,15.451727 59.7545002,13.0799649 58.5588389,11.1035452 C57.3631776,9.1271254 55.433396,7.70798326 53.194112,7.15837853 C48.53184,6.04507687 44.824128,9.45047017 43.678656,14.1051794 Z" stroke="#273139" stroke-width="0.8" fill="#FFFFFF" fill-rule="nonzero" stroke-linecap="round" stroke-linejoin="round"></path>
                    <path d="M47.848576,17.6969625 C47.848576,18.5928212 47.1242945,19.3190582 46.230848,19.3190582 C45.3374015,19.3190582 44.61312,18.5928212 44.61312,17.6969625" stroke="#273139" stroke-width="0.8" fill="#FFFFFF" fill-rule="nonzero" stroke-linecap="round" stroke-linejoin="round"></path>
                    <path d="M53.294592,17.6969625 C53.294592,18.5928212 52.5703105,19.3190582 51.676864,19.3190582 C50.7834175,19.3190582 50.059136,18.5928212 50.059136,17.6969625" stroke="#273139" stroke-width="0.8" fill="#FFFFFF" fill-rule="nonzero" stroke-linecap="round" stroke-linejoin="round"></path>
                    <path d="M44.477472,13.3898453 C42.7403068,13.2851144 41.1599142,12.3474461 40.232192,10.8710632 C39.378112,9.3900194 39.528832,7.31454301 40.779808,6.14582815 C42.241792,4.77561073 44.527712,4.98215085 46.512192,5.27936713 L50.420864,5.86372456 C50.8893794,5.90362701 51.34618,6.03180812 51.767296,6.24154187 C52.837408,6.86116225 53.008224,8.4379198 52.460608,9.55122145 C51.189536,12.1707548 47.17536,13.601423 44.477472,13.3898453 Z" fill="#273139" fill-rule="nonzero"></path>
                    <path d="M63.518432,2.84118613 C61.3171866,3.90217923 59.7915304,5.99734727 59.454016,8.4228071 C59.499232,5.90402508 58.162848,1.52638191 56.072864,0.120901537" stroke="#273139" stroke-width="0.8" stroke-linecap="round" stroke-linejoin="round"></path>
                    <path d="M44.246368,11.6266978 C45.7801894,11.3062003 47.3498501,11.1926898 48.913664,11.2891811 C51.54624,11.5057963 54.239104,12.7248868 55.550368,15.0169785 C56.4251052,16.6999136 56.6964839,18.6331496 56.31904,20.4928106 C56.113056,21.6867133 55.148448,23.3390343 57.09776,23.318884 C58.7559509,23.3186608 60.3468668,22.6613831 61.523904,21.4902483 C62.87536,20.0898055 63.1768,18.084855 63.171776,16.2108811 C63.1519017,11.660171 60.1565553,7.66167408 55.803324,6.37471221 C51.4500927,5.08775034 46.77046,6.81726485 44.291584,10.6292602 C44.266464,10.9617394 44.246368,11.2891811 44.246368,11.6266978 Z" fill="#273139" fill-rule="nonzero"></path>
                    <path d="M41.945376,36.7742176 C41.1662783,37.8696711 40.569079,39.0843062 40.176928,40.3710384 C39.788366,41.6532761 39.553927,42.9774583 39.478592,44.315451 C39.3767808,45.6463942 39.4545166,46.9850264 39.709696,48.2951266 C39.9598488,49.6093735 40.3945638,50.8814221 41.000864,52.0732997 L40.684352,52.2445768 C39.9914304,51.0499819 39.4976105,49.7499922 39.222368,48.3958779 C38.9472078,47.0407775 38.8643304,45.653497 38.976192,44.2751505 C39.0818112,42.9025556 39.3586146,41.5486499 39.800128,40.2450993 C40.2505769,38.9462316 40.9313803,37.7396629 41.809728,36.6835415 L41.945376,36.7742176 Z" fill="#273139" fill-rule="nonzero"></path>
                    <path d="M40.222144,40.1644982 C40.8431118,38.5443376 41.7369799,37.0431515 42.864768,35.7264043 C43.60832,34.8095676 44.61312,33.9380691 45.19088,32.8952933 C46.733248,30.1246331 48.05456,32.7038659 52.194336,32.6534902 C55.881952,32.6081521 58.695392,28.5025374 62.659328,32.9607816 C63.7017623,33.5561069 64.5365784,34.4582433 65.050752,35.545052 C61.031552,36.9051943 60.353312,40.9251704 60.423648,42.8495199 C60.509056,45.2574755 60.99136,47.4185905 66.246464,51.1766133 C65.698848,56.1083885 64.739264,61.0149759 64.694048,65.9971267 C64.694048,66.9744141 65.924928,76.7271382 65.357216,76.8127768 C58.991808,81.0594433 41.864992,77.4475098 40.528608,76.8933778 C38.699872,76.127668 40.423104,71.205968 40.729568,69.9516145 C41.8347269,65.5857605 42.0703262,61.0442217 41.42288,56.5869571 C40.92048,53.0959252 39.66448,49.700607 39.41328,46.1793497 C39.2424719,44.1392503 39.5185384,42.0863726 40.222144,40.1644982 Z" fill="#75B6F5" fill-rule="nonzero"></path>
                    <path d="M53.2544,54.692833 C50.776335,52.187949 46.8575719,51.8409919 43.980096,53.87171" stroke="#273139" stroke-width="0.8" stroke-linecap="round" stroke-linejoin="round"></path>
                    <path d="M66.075648,74.9942161 C65.100992,76.5911239 62.558848,76.9538285 60.89088,77.1956316 C58.2651556,77.5262447 55.6144004,77.6105694 52.973056,77.4475098 C48.15504,77.2460073 43.166208,76.7472884 38.519008,75.3972213 C36.961568,74.9438405 36.2984,77.3769839 37.850816,77.8253271 C43.241568,79.3920096 49.13472,79.9360665 54.726432,80.0217051 C58.795872,80.0821558 65.779232,80.3239589 68.246016,76.2687198 C69.090048,74.8783522 66.91968,73.6139236 66.075648,74.9942161 L66.075648,74.9942161 Z" fill="#475867" fill-rule="nonzero"></path>
                    <path d="M50.7424,111.647532 C50.144544,107.980186 48.30576,100.685793 48.83328,87.7845913" stroke="#FFFFFF" stroke-width="0.8" stroke-linecap="round" stroke-linejoin="round"></path>
                    <path d="M62.8,32.9658192 L81.283296,53.6550948" stroke="#273139" stroke-width="0.8" stroke-linecap="round" stroke-linejoin="round"></path>
                    <path d="M61.373184,46.673031 C62.377984,48.6124932 64.5584,49.8819593 66.26656,51.2521767 L80.33376,62.5111324" stroke="#273139" stroke-width="0.8" stroke-linecap="round" stroke-linejoin="round"></path>
                    <path d="M81.479232,62.4657943 C88.256608,56.1335763 89.748736,54.1739639 97.777088,45.8418329" stroke="#273139" stroke-width="0.8" stroke-linecap="round" stroke-linejoin="round"></path>
                    <path d="M94.893312,43.9678591 C94.893312,43.9678591 88.362112,50.4360913 81.599808,54.4308796 C80.592542,55.1226606 79.9287391,56.2136498 79.776096,57.4282303" stroke="#273139" stroke-width="0.8" stroke-linecap="round" stroke-linejoin="round"></path>
                    <path d="M78.344256,48.9197846 C74.249696,51.0103737 72.888192,55.0605752 74.360224,59.7908478" stroke="#273139" stroke-width="0.8" stroke-linecap="round" stroke-linejoin="round"></path>
                    <path d="M97.606272,45.2524379 C100.07808,45.6000299 104.639872,43.9477088 106.348032,43.0862854 C106.763483,42.8728605 107.154342,42.6144001 107.5136,42.3155381 L107.543744,42.3155381 C107.800005,42.0978652 107.874642,41.732734 107.724444,41.4315278 C107.574246,41.1303216 107.238146,40.9711131 106.91072,41.0460719 L102.364,42.0787726" stroke="#273139" stroke-width="0.8" stroke-linecap="round" stroke-linejoin="round"></path>
                    <path d="M100.515168,43.3230509 C101.497683,42.9490883 102.286489,42.1908815 102.700608,41.2223867 C102.819081,40.9458002 102.753549,40.6245113 102.536291,40.4167726 C102.319032,40.2090339 101.995859,40.1586498 101.725952,40.2904373 C100.886944,40.6934425 96.415584,43.0661351 95.621792,43.6555301" stroke="#273139" stroke-width="0.8" stroke-linecap="round" stroke-linejoin="round"></path>
                    <path d="M41.09632,12.3420319 C42.136288,12.0851162 43.186304,11.8382755 44.246368,11.6266978"></path>
                    <path d="M54.555616,25.8376661 C54.932416,24.9409797 55.304192,24.0392557 55.625728,23.1173815"></path>
                    <path d="M59.20784,30.7291408 C57.891552,32.0943206 49.330656,34.2201726 45.281312,30.6838027" stroke="#273139" stroke-width="0.8" stroke-linecap="round" stroke-linejoin="round"></path>
                    <path d="M60.373408,30.0087691 C60.418624,28.6486268 58.936544,27.6562267 57.580064,27.6713394 C56.223584,27.6864521 54.982656,28.391711 53.766848,29.0012563 C52.55104,29.6108015 51.179488,30.1447833 49.868224,29.7971914 C48.903616,29.5453132 48.099776,28.8400542 47.12512,28.6083263 C46.150464,28.3765983 44.844224,29.016369 45.025088,29.998694" stroke="#273139" stroke-width="0.8" stroke-linecap="round" stroke-linejoin="round"></path>
                    <path d="M59.569568,79.2862207 C59.454016,83.2407085 63.156704,86.8727922 67.105568,86.6712896" stroke="#FFFFFF" stroke-width="0.5" stroke-linecap="round" stroke-linejoin="round"></path>
                    <path d="M44.11072,79.1753943 C43.1939276,82.5757463 40.0870283,84.9142888 36.57472,84.8476914" stroke="#FFFFFF" stroke-width="0.5" stroke-linecap="round" stroke-linejoin="round"></path>
                    <path d="M38.016608,117.909224 C37.5490719,118.718027 36.7007278,119.230105 35.769084,119.265877 C34.8374401,119.301649 33.9525249,118.856122 33.424672,118.085539" stroke="#FFFFFF" stroke-width="0.5" stroke-linecap="round" stroke-linejoin="round"></path>
                    <path d="M58.574816,118.483507 C56.9785001,120.418699 54.1380945,120.73317 52.159168,119.193803" stroke="#FFFFFF" stroke-width="0.5" stroke-linecap="round" stroke-linejoin="round"></path>
                    <path d="M59.20784,159.776419 C57.4565705,160.530346 55.4904628,160.614579 53.68144,160.013185" stroke="#FFFFFF" stroke-width="0.5" stroke-linecap="round" stroke-linejoin="round"></path>
                    <path d="M71.205152,149.399037 C70.974048,150.210085 69.818528,151.162185 69.05488,151.509777 C66.9950212,152.419896 64.6317326,152.326967 62.64928,151.257898" stroke="#FFFFFF" stroke-width="0.8" stroke-linecap="round" stroke-linejoin="round"></path>
                    <path d="M46.431808,148.265585 C46.200704,149.076633 45.050208,150.028733 44.28656,150.376325 C42.2267012,151.286444 39.8634126,151.193515 37.88096,150.124446" stroke="#FFFFFF" stroke-width="0.8" stroke-linecap="round" stroke-linejoin="round"></path>
                    <path d="M70.557056,15.1731429 C71.983872,15.7171999 72.737472,17.3544082 72.782688,18.8807901 C72.827904,20.407172 72.32048,21.9033285 71.938656,23.3793348 C71.556832,24.8553411 71.310656,26.462324 71.848224,27.9131424 C72.385792,29.3639609 73.973376,30.4772626 75.430336,30.0238818" stroke="#FFFFFF" stroke-width="0.5" stroke-linecap="round" stroke-linejoin="round"></path>
                    <path d="M63.613888,13.0976666 C63.927433,11.6566649 63.2289582,10.1854931 61.915776,9.52099607" stroke="#273139" stroke-width="0.8" stroke-linecap="round" stroke-linejoin="round"></path>
                    <path d="M70.140064,4.37764317 C72.4431846,4.41960054 74.4227969,6.02666826 74.943008,8.27671775" stroke="#FFFFFF" stroke-width="0.5" stroke-linecap="round" stroke-linejoin="round"></path>
                    <path d="M48.15504,10.1758794 C47.2324181,11.0787382 45.9189752,11.4561115 44.6594965,11.1802053 C43.4000178,10.9042992 42.3632031,10.0120697 41.90016,8.80566197" stroke="#FFFFFF" stroke-width="0.5" stroke-linecap="round" stroke-linejoin="round"></path>
                    <path d="M13.750688,41.6304294 C12.7635357,43.6452752 10.8728144,45.063398 8.6664,45.4438654 C7.872608,45.5899547 8.209216,46.8040077 8.997984,46.6579183 C11.5234,46.1963095 13.6855399,44.5712594 14.835872,42.2702 C15.1976,41.5447908 14.112416,40.9100577 13.750688,41.6304294 L13.750688,41.6304294 Z" fill="#F48927" fill-rule="nonzero"></path>
                    <path d="M61.448544,46.6478432 C61.6972696,47.1930935 62.0038259,47.7099039 62.362912,48.1893378 C62.7158832,48.6737443 63.1055596,49.1301555 63.52848,49.5545176 C63.945687,49.9773394 64.394094,50.3680183 64.869888,50.7232325 C65.3127297,51.075759 65.8271733,51.3267975 66.377088,51.4587169 L66.3168,51.9624733 C65.6748386,51.8350579 65.0752614,51.5474541 64.573472,51.1262376 C64.0818539,50.7455475 63.6306611,50.3150818 63.22704,49.8416588 C62.8185552,49.3786608 62.4457082,48.8852414 62.111712,48.3656525 C61.7722269,47.8492602 61.5019619,47.2903337 61.307872,46.7032564 L61.448544,46.6478432 Z" fill="#273139" fill-rule="nonzero"></path>
                </g>
                <path d="M66.789056,35.1067839 C64.2244462,35.545621 62.0526327,37.24989 61.011456,39.6405916 C60.0078788,42.1232318 60.2662846,44.9395736 61.704768,47.1969377" id="Path" stroke="#273139" stroke-width="0.8" stroke-linecap="round" stroke-linejoin="round"></path>
            </g>
            <path d="M54.738679,167.145631 C59.1108891,164.771251 67.43419,156.484937 58.7300238,152.978265 C57.116765,152.329771 53.7911604,152.937091 52.3915577,153.969878 C50.5336781,155.342352 49.7843333,158.728933 53.3050152,158.001521 C59.0334775,156.817762 65.5453456,143.652303 61.6499913,138.148681 C59.5784555,135.22188 55.1474125,134.202817 52.6702397,137.102169 C50.7318519,139.366752 52.4380047,142.152875 54.9399493,141.017152 C57.5347879,139.840256 58.5937793,133.753332 58.7362167,131.145631 C58.3190644,127.693881 57.9513644,125.664277 57.6331165,125.056819" id="Path" stroke="#92A2B1" stroke-width="0.5" stroke-dasharray="2"></path>
            <path d="M36.091636,138.988703 C37.0666861,139.23761 37.9713014,139.178855 38.4979861,138.894161 C39.064619,138.705077 39.7311223,138.081208 40.2278459,137.192943 C40.9463869,135.910486 41.0357446,134.584764 40.4260098,134.232235 C39.8162749,133.88024 38.7403032,134.632836 38.0217622,135.916361 C37.8535595,136.216545 37.7210998,136.519399 37.6222807,136.811036 C37.3468488,136.681776 37.0393532,136.569608 36.709781,136.485749 C35.300032,136.125742 34.0211657,136.39548 33.8498092,137.086116 C33.6789783,137.77782 34.681887,138.62923 36.091636,138.988703 Z" id="Path" fill="#92A2B1" fill-rule="nonzero"></path>
            <path d="M56.0412434,122.640044 C56.6201641,123.034281 57.6819372,123.235568 58.8755686,123.106934 C60.5997726,122.921727 61.920867,122.132062 61.8260547,121.342398 C61.7318702,120.553924 60.2600806,120.063213 58.5346208,120.247825 C58.1308833,120.291299 57.74975,120.368717 57.403779,120.470551 C57.3328267,120.133485 57.2223169,119.777957 57.0703659,119.421238 C56.420493,117.894911 55.2639075,116.900982 54.4878273,117.198149 C53.7104913,117.49591 53.6087721,118.973405 54.258645,120.499732 C54.7069632,121.555595 55.400161,122.345855 56.0412434,122.640044 Z" id="Path" fill="#92A2B1" fill-rule="nonzero"></path>
            <path d="M39.2799814,141.29505 C28.3156284,150.08666 33.7660877,156.015795 36.5230346,156.015795 C39.2799814,156.015795 42.7973171,153.335968 42.7973171,151.303566 C42.7973171,149.271163 40.1237653,149.891604 37.8720378,150.833282 C35.6203104,151.77496 32.2165898,155.751646 34.3066689,161.601424 C35.700055,165.501276 37.7650094,168.205397 40.501532,169.713786" id="Path-3" stroke="#92A2B1" stroke-width="0.5" stroke-dasharray="2"></path>
        </g>
    </g>
</svg>
