<?xml version="1.0" encoding="UTF-8" standalone="no"?>
<svg
   xmlns:dc="http://purl.org/dc/elements/1.1/"
   xmlns:cc="http://creativecommons.org/ns#"
   xmlns:rdf="http://www.w3.org/1999/02/22-rdf-syntax-ns#"
   xmlns:svg="http://www.w3.org/2000/svg"
   xmlns="http://www.w3.org/2000/svg"
   xmlns:sodipodi="http://sodipodi.sourceforge.net/DTD/sodipodi-0.dtd"
   xmlns:inkscape="http://www.inkscape.org/namespaces/inkscape"
   width="195.46797mm"
   height="38.368782mm"
   viewBox="0 0 195.46797 38.368782"
   version="1.1"
   id="svg1395"
   inkscape:version="1.0.2-2 (e86c870879, 2021-01-15)"
   sodipodi:docname="complymedia dark source file.svg">
  <defs
     id="defs1389" />
  <sodipodi:namedview
     id="base"
     pagecolor="#ffffff"
     bordercolor="#666666"
     borderopacity="1.0"
     inkscape:pageopacity="0.0"
     inkscape:pageshadow="2"
     inkscape:zoom="0.49497475"
     inkscape:cx="407.77407"
     inkscape:cy="163.42167"
     inkscape:document-units="mm"
     inkscape:current-layer="layer1"
     inkscape:document-rotation="0"
     showgrid="false"
     inkscape:window-width="1920"
     inkscape:window-height="1017"
     inkscape:window-x="-8"
     inkscape:window-y="-8"
     inkscape:window-maximized="1" />
  <metadata
     id="metadata1392">
    <rdf:RDF>
      <cc:Work
         rdf:about="">
        <dc:format>image/svg+xml</dc:format>
        <dc:type
           rdf:resource="http://purl.org/dc/dcmitype/StillImage" />
        <dc:title></dc:title>
      </cc:Work>
    </rdf:RDF>
  </metadata>
  <g
     inkscape:label="Layer 1"
     inkscape:groupmode="layer"
     id="layer1"
     transform="translate(6.2637417,-94.964416)">
    <g
       id="g2038">
      <path
         style="fill:#52bd94;fill-opacity:1;stroke:none;stroke-width:0.151485px;stroke-linecap:butt;stroke-linejoin:miter;stroke-opacity:1"
         d="m 13.07827,121.24582 c -0.278027,-0.004 -0.565044,0.064 -0.834369,0.21268 -0.783641,0.4324 -1.021934,1.33006 -0.594243,2.03804 0.42769,0.70798 1.360594,0.96021 2.144178,0.52781 0.783584,-0.43239 1.021476,-1.33074 0.593786,-2.03872 -0.280661,-0.46462 -0.778661,-0.73262 -1.309352,-0.73981 z"
         id="path4069" />
      <path
         style="fill:#52bd94;fill-opacity:1;stroke:none;stroke-width:0.151485px;stroke-linecap:butt;stroke-linejoin:miter;stroke-opacity:1"
         d="m 9.5690317,111.93649 c -0.2779703,-0.004 -0.5648722,0.0639 -0.8342543,0.21255 -0.7835842,0.4324 -1.0214763,1.3306 -0.5937857,2.03859 0.4276333,0.70797 1.3601935,0.95967 2.1437773,0.52727 0.783584,-0.43241 1.021305,-1.3298 0.593614,-2.03778 -0.280604,-0.46461 -0.77866,-0.73318 -1.3093513,-0.74063 z"
         id="path4067" />
      <path
         style="fill:#52bd94;fill-opacity:1;stroke:none;stroke-width:0.151485px;stroke-linecap:butt;stroke-linejoin:miter;stroke-opacity:1"
         d="m 6.2351635,102.39598 c -0.2780276,-0.004 -0.565044,0.0641 -0.8343689,0.21268 -0.7835841,0.43241 -1.0218198,1.33007 -0.5941864,2.03805 0.4276333,0.70798 1.3605942,0.96021 2.1441784,0.52781 0.7835841,-0.4324 1.0214763,-1.33074 0.5937857,-2.03873 -0.280604,-0.46461 -0.7786603,-0.73262 -1.3094088,-0.73981 z"
         id="path4065" />
      <path
         style="fill:#52bd94;fill-opacity:1;stroke:none;stroke-width:0.151485px;stroke-linecap:butt;stroke-linejoin:miter;stroke-opacity:1"
         d="m 10.204728,94.964416 -16.3394987,8.359694 c 0,0 -0.2863294,2.71324 -0.00573,6.52767 l 8.2526535,-4.76461 c -0.5783842,-1.78735 0.1919741,-3.78526 1.9211152,-4.73943 0.626707,-0.34582 1.3147335,-0.518879 2.0006415,-0.533805 0.046949,-0.0011 0.094298,-0.0011 0.1413612,-5.72e-4 1.4606178,0.01443 2.891864,0.743097 3.6795132,2.046887 1.1824751,1.95762 0.4648481,4.46819 -1.5404877,5.57477 -1.4431551,0.79638 -3.2117445,0.67706 -4.5306575,-0.18206 l -9.605862,5.54592 c 0.3190217,2.22953 0.8511443,4.65413 1.7198085,7.04214 l 9.4749212,-5.4704 c -0.4286067,-1.71828 0.3487367,-3.57305 1.9951451,-4.48159 0.626707,-0.3458 1.3147335,-0.519 2.0006415,-0.53393 0.046949,-10e-4 0.094298,-10e-4 0.1414185,-5.7e-4 1.4606175,0.0144 2.8918635,0.74309 3.6793985,2.04688 1.182533,1.95761 0.464848,4.46818 -1.540431,5.57478 -1.530697,0.84464 -3.4266769,0.65828 -4.7647129,-0.3474 l -9.9280327,5.73193 c 1.0139187,2.1059 2.33792738,4.11444 4.0620873,5.85547 l 7.8623501,-4.53941 c -0.4269463,-1.71742 0.3505116,-3.57057 1.9960032,-4.47858 0.62665,-0.3458 1.314677,-0.51901 2.000642,-0.53394 0.04695,-0.001 0.09424,-0.001 0.141361,-5.7e-4 1.460618,0.0144 2.892036,0.74309 3.679571,2.04689 1.182533,1.95762 0.464734,4.46818 -1.540545,5.57476 -1.531728,0.84524 -3.429312,0.65804 -4.767462,-0.34942 l -7.2027217,4.15855 c 1.9271268,1.423 4.2399195,2.55051 7.0157287,3.23873 19.010474,-4.71335 16.339612,-30.00835 16.339612,-30.00835 z"
         id="path5813-3" />
      <path
         d="m 40.462579,121.78722 q 1.011074,0 1.642996,-0.55609 0.631921,-0.55609 0.657198,-1.47869 h 3.425014 q -0.01264,1.39023 -0.758306,2.55296 -0.745667,1.1501 -2.047425,1.79466 -1.28912,0.63192 -2.856285,0.63192 -2.932115,0 -4.625664,-1.85785 -1.69355,-1.87049 -1.69355,-5.15648 v -0.24013 q 0,-3.15961 1.680911,-5.04273 1.680911,-1.88313 4.613026,-1.88313 2.565601,0 4.107489,1.46606 1.554527,1.45342 1.579804,3.88 h -3.425014 q -0.02528,-1.06163 -0.657198,-1.71883 -0.631922,-0.66984 -1.668273,-0.66984 -1.276481,0 -1.933679,0.93525 -0.64456,0.9226 -0.64456,3.00794 v 0.37916 q 0,2.11061 0.64456,3.03322 0.64456,0.9226 1.958956,0.9226 z"
         style="font-style:normal;font-variant:normal;font-weight:bold;font-stretch:normal;font-size:25.8835px;line-height:1.25;font-family:Roboto;-inkscape-font-specification:'Roboto Bold';fill:#ffffff;fill-opacity:1;stroke-width:0.260659"
         id="path1985" />
      <path
         d="m 47.704397,117.51544 q 0,-2.03479 0.783583,-3.62723 0.783582,-1.59244 2.24964,-2.4645 1.478696,-0.87205 3.425014,-0.87205 2.767815,0 4.511918,1.69355 1.756742,1.69355 1.958957,4.60039 l 0.02528,0.93524 q 0,3.14697 -1.756741,5.05537 -1.756741,1.89577 -4.714133,1.89577 -2.957392,0 -4.726772,-1.89577 -1.756742,-1.89576 -1.756742,-5.15647 z m 3.652506,0.2654 q 0,1.94632 0.733029,2.98267 0.733028,1.02371 2.097979,1.02371 1.327034,0 2.072702,-1.01107 0.745667,-1.02371 0.745667,-3.26071 0,-1.90841 -0.745667,-2.9574 -0.745668,-1.04899 -2.097979,-1.04899 -1.339674,0 -2.072702,1.04899 -0.733029,1.03636 -0.733029,3.2228 z"
         style="font-style:normal;font-variant:normal;font-weight:bold;font-stretch:normal;font-size:25.8835px;line-height:1.25;font-family:Roboto;-inkscape-font-specification:'Roboto Bold';fill:#ffffff;fill-opacity:1;stroke-width:0.260659"
         id="path1987" />
      <path
         d="m 66.333439,110.80443 0.113746,1.52925 q 1.453419,-1.78202 3.930551,-1.78202 2.641431,0 3.627229,2.08534 1.44078,-2.08534 4.107488,-2.08534 2.224364,0 3.311268,1.30176 1.086905,1.28912 1.086905,3.89264 v 8.73315 h -3.665144 v -8.72051 q 0,-1.16274 -0.454983,-1.69355 -0.454984,-0.54346 -1.60508,-0.54346 -1.642996,0 -2.274917,1.56717 l 0.01264,9.39035 h -3.652505 v -8.70788 q 0,-1.18801 -0.467622,-1.71882 -0.467622,-0.53082 -1.592442,-0.53082 -1.554527,0 -2.24964,1.28912 v 9.6684 h -3.652506 v -13.67478 z"
         style="font-style:normal;font-variant:normal;font-weight:bold;font-stretch:normal;font-size:25.8835px;line-height:1.25;font-family:Roboto;-inkscape-font-specification:'Roboto Bold';fill:#ffffff;fill-opacity:1;stroke-width:0.260659"
         id="path1989" />
      <path
         d="m 97.626184,117.7682 q 0,3.15961 -1.440781,5.06801 -1.428142,1.89577 -3.867359,1.89577 -2.072702,0 -3.349183,-1.44078 v 6.4456 h -3.652505 v -18.93237 h 3.387098 l 0.126385,1.33967 q 1.327034,-1.59244 3.462929,-1.59244 2.527685,0 3.930551,1.87049 1.402865,1.87049 1.402865,5.15648 z m -3.652506,-0.2654 q 0,-1.9084 -0.682475,-2.94476 -0.669836,-1.03635 -1.958956,-1.03635 -1.718826,0 -2.363386,1.3144 v 5.59882 q 0.669837,1.35231 2.388663,1.35231 2.616154,0 2.616154,-4.28442 z"
         style="font-style:normal;font-variant:normal;font-weight:bold;font-stretch:normal;font-size:25.8835px;line-height:1.25;font-family:Roboto;-inkscape-font-specification:'Roboto Bold';fill:#ffffff;fill-opacity:1;stroke-width:0.260659"
         id="path1991" />
      <path
         d="m 103.74318,124.47921 h -3.66514 v -19.41262 h 3.66514 z"
         style="font-style:normal;font-variant:normal;font-weight:bold;font-stretch:normal;font-size:25.8835px;line-height:1.25;font-family:Roboto;-inkscape-font-specification:'Roboto Bold';fill:#ffffff;fill-opacity:1;stroke-width:0.260659"
         id="path1993" />
      <path
         d="m 111.85706,119.31009 2.52768,-8.50566 h 3.91791 l -5.49771,15.79804 -0.30332,0.72039 q -1.22593,2.67934 -4.0443,2.67934 -0.79622,0 -1.61772,-0.24013 v -2.76781 l 0.55609,0.0126 q 1.03635,0 1.54189,-0.31597 0.51818,-0.31596 0.80886,-1.04898 l 0.42971,-1.12482 -4.78997,-13.7127 h 3.93055 z"
         style="font-style:normal;font-variant:normal;font-weight:bold;font-stretch:normal;font-size:25.8835px;line-height:1.25;font-family:Roboto;-inkscape-font-specification:'Roboto Bold';fill:#ffffff;fill-opacity:1;stroke-width:0.260659"
         id="path1995" />
      <path
         d="m 123.16845,110.80443 0.11374,1.52925 q 1.45342,-1.78202 3.93055,-1.78202 2.64144,0 3.62723,2.08534 1.44078,-2.08534 4.10749,-2.08534 2.22437,0 3.31127,1.30176 1.0869,1.28912 1.0869,3.89264 v 8.73315 h -3.66514 v -8.72051 q 0,-1.16274 -0.45498,-1.69355 -0.45499,-0.54346 -1.60508,-0.54346 -1.643,0 -2.27492,1.56717 l 0.0126,9.39035 h -3.65251 v -8.70788 q 0,-1.18801 -0.46762,-1.71882 -0.46762,-0.53082 -1.59244,-0.53082 -1.55453,0 -2.24964,1.28912 v 9.6684 h -3.65251 v -13.67478 z"
         style="font-style:normal;font-variant:normal;font-weight:bold;font-stretch:normal;font-size:25.8835px;line-height:1.25;font-family:Roboto;-inkscape-font-specification:'Roboto Bold';fill:#ffffff;fill-opacity:1;stroke-width:0.260659"
         id="path1997" />
      <path
         d="m 148.4453,124.73198 q -3.00795,0 -4.90371,-1.84521 -1.88313,-1.84521 -1.88313,-4.91635 v -0.35388 q 0,-2.06006 0.79622,-3.67778 0.79623,-1.63036 2.24964,-2.50241 1.46606,-0.88469 3.33655,-0.88469 2.80573,0 4.41081,1.76938 1.61772,1.76938 1.61772,5.01746 v 1.49133 h -8.70788 q 0.17694,1.33968 1.06163,2.14854 0.89733,0.80885 2.26228,0.80885 2.11062,0 3.29863,-1.52924 l 1.79466,2.00951 q -0.8215,1.16273 -2.22437,1.81993 -1.40286,0.64456 -3.10905,0.64456 z m -0.41707,-11.22293 q -1.0869,0 -1.76938,0.73303 -0.66984,0.73303 -0.85941,2.09798 h 5.08065 v -0.29068 q -0.0253,-1.21329 -0.6572,-1.87049 -0.63192,-0.66984 -1.79466,-0.66984 z"
         style="font-style:normal;font-variant:normal;font-weight:bold;font-stretch:normal;font-size:25.8835px;line-height:1.25;font-family:Roboto;-inkscape-font-specification:'Roboto Bold';fill:#ffffff;fill-opacity:1;stroke-width:0.260659"
         id="path1999" />
      <path
         d="m 155.57338,117.54071 q 0,-3.19752 1.42814,-5.09328 1.44078,-1.89577 3.93055,-1.89577 1.99687,0 3.29863,1.49134 v -6.97641 h 3.66515 v 19.41262 h -3.29863 l -0.17694,-1.45342 q -1.36495,1.70619 -3.51348,1.70619 -2.41394,0 -3.88,-1.89577 -1.45342,-1.9084 -1.45342,-5.2955 z m 3.6525,0.26541 q 0,1.92104 0.66984,2.94475 0.66984,1.02372 1.94632,1.02372 1.69355,0 2.38866,-1.42815 v -5.3966 q -0.68247,-1.42815 -2.36338,-1.42815 -2.64144,0 -2.64144,4.28443 z"
         style="font-style:normal;font-variant:normal;font-weight:bold;font-stretch:normal;font-size:25.8835px;line-height:1.25;font-family:Roboto;-inkscape-font-specification:'Roboto Bold';fill:#ffffff;fill-opacity:1;stroke-width:0.260659"
         id="path2001" />
      <path
         d="m 174.58158,124.47921 h -3.66515 v -13.67478 h 3.66515 z m -3.88,-17.21354 q 0,-0.8215 0.54345,-1.35231 0.55609,-0.53081 1.50397,-0.53081 0.93525,0 1.49134,0.53081 0.55609,0.53081 0.55609,1.35231 0,0.83414 -0.56873,1.36495 -0.55609,0.53082 -1.4787,0.53082 -0.9226,0 -1.49133,-0.53082 -0.55609,-0.53081 -0.55609,-1.36495 z"
         style="font-style:normal;font-variant:normal;font-weight:bold;font-stretch:normal;font-size:25.8835px;line-height:1.25;font-family:Roboto;-inkscape-font-specification:'Roboto Bold';fill:#ffffff;fill-opacity:1;stroke-width:0.260659"
         id="path2003" />
      <path
         d="m 185.5138,124.47921 q -0.25276,-0.4929 -0.36651,-1.22593 -1.32703,1.4787 -3.45029,1.4787 -2.00951,0 -3.33654,-1.16274 -1.3144,-1.16273 -1.3144,-2.93211 0,-2.17381 1.60508,-3.33655 1.61772,-1.16273 4.66358,-1.17537 h 1.68091 v -0.78358 q 0,-0.94789 -0.4929,-1.51661 -0.48026,-0.56873 -1.52925,-0.56873 -0.9226,0 -1.45342,0.44234 -0.51817,0.44235 -0.51817,1.21329 h -3.65251 q 0,-1.18801 0.73303,-2.19909 0.73303,-1.01107 2.0727,-1.5798 1.33967,-0.58137 3.00795,-0.58137 2.52768,0 4.00638,1.27648 1.49133,1.26385 1.49133,3.56404 v 5.92742 q 0.0126,1.94632 0.54346,2.94476 v 0.21485 z m -3.02058,-2.54032 q 0.80886,0 1.49134,-0.35388 0.68247,-0.36651 1.01107,-0.97316 v -2.35075 h -1.36495 q -2.74254,0 -2.91948,1.89577 l -0.0126,0.21485 q 0,0.68248 0.48026,1.12482 0.48026,0.44235 1.3144,0.44235 z"
         style="font-style:normal;font-variant:normal;font-weight:bold;font-stretch:normal;font-size:25.8835px;line-height:1.25;font-family:Roboto;-inkscape-font-specification:'Roboto Bold';fill:#ffffff;fill-opacity:1;stroke-width:0.260659"
         id="path2005" />
    </g>
  </g>
</svg>
