<?xml version="1.0" encoding="UTF-8" standalone="no"?>
<svg
   xmlns:dc="http://purl.org/dc/elements/1.1/"
   xmlns:cc="http://creativecommons.org/ns#"
   xmlns:rdf="http://www.w3.org/1999/02/22-rdf-syntax-ns#"
   xmlns:svg="http://www.w3.org/2000/svg"
   xmlns="http://www.w3.org/2000/svg"
   xmlns:sodipodi="http://sodipodi.sourceforge.net/DTD/sodipodi-0.dtd"
   xmlns:inkscape="http://www.inkscape.org/namespaces/inkscape"
   width="195.46799mm"
   height="38.36879mm"
   viewBox="0 0 195.46799 38.36879"
   version="1.1"
   id="svg1530"
   inkscape:version="1.0.2-2 (e86c870879, 2021-01-15)">
  <defs
     id="defs1524" />
  <sodipodi:namedview
     id="base"
     pagecolor="#ffffff"
     bordercolor="#666666"
     borderopacity="1.0"
     inkscape:pageopacity="0.0"
     inkscape:pageshadow="2"
     inkscape:zoom="0.35"
     inkscape:cx="380.81695"
     inkscape:cy="172.50794"
     inkscape:document-units="mm"
     inkscape:current-layer="layer1"
     inkscape:document-rotation="0"
     showgrid="false"
     inkscape:window-width="1920"
     inkscape:window-height="1017"
     inkscape:window-x="-8"
     inkscape:window-y="-8"
     inkscape:window-maximized="1" />
  <metadata
     id="metadata1527">
    <rdf:RDF>
      <cc:Work
         rdf:about="">
        <dc:format>image/svg+xml</dc:format>
        <dc:type
           rdf:resource="http://purl.org/dc/dcmitype/StillImage" />
        <dc:title></dc:title>
      </cc:Work>
    </rdf:RDF>
  </metadata>
  <g
     inkscape:label="Layer 1"
     inkscape:groupmode="layer"
     id="layer1"
     transform="translate(-5.0755153,-102.52394)">
    <path
       style="fill:#52bd94;fill-opacity:1;stroke:none;stroke-width:0.151485px;stroke-linecap:butt;stroke-linejoin:miter;stroke-opacity:1"
       d="m 24.41752,128.80535 c -0.278028,-0.004 -0.565044,0.064 -0.834369,0.21268 -0.783641,0.4324 -1.021934,1.33006 -0.594244,2.03804 0.427691,0.70798 1.360594,0.96021 2.144179,0.52781 0.783584,-0.43239 1.021476,-1.33074 0.593785,-2.03872 -0.280661,-0.46462 -0.77866,-0.73262 -1.309351,-0.73981 z"
       id="path1358" />
    <path
       style="fill:#52bd94;fill-opacity:1;stroke:none;stroke-width:0.151485px;stroke-linecap:butt;stroke-linejoin:miter;stroke-opacity:1"
       d="m 20.908281,119.49602 c -0.27797,-0.004 -0.564872,0.0639 -0.834254,0.21255 -0.783584,0.4324 -1.021476,1.3306 -0.593786,2.03859 0.427634,0.70797 1.360194,0.95967 2.143778,0.52727 0.783584,-0.43241 1.021304,-1.3298 0.593614,-2.03778 -0.280604,-0.46461 -0.77866,-0.73318 -1.309352,-0.74063 z"
       id="path1360" />
    <path
       style="fill:#52bd94;fill-opacity:1;stroke:none;stroke-width:0.151485px;stroke-linecap:butt;stroke-linejoin:miter;stroke-opacity:1"
       d="m 17.574413,109.95551 c -0.278028,-0.004 -0.565044,0.064 -0.834369,0.21268 -0.783584,0.43241 -1.02182,1.33006 -0.594186,2.03804 0.427633,0.70799 1.360594,0.96022 2.144178,0.52782 0.783584,-0.4324 1.021476,-1.33075 0.593786,-2.03873 -0.280604,-0.46462 -0.77866,-0.73262 -1.309409,-0.73981 z"
       id="path1362" />
    <path
       style="fill:#52bd94;fill-opacity:1;stroke:none;stroke-width:0.151485px;stroke-linecap:butt;stroke-linejoin:miter;stroke-opacity:1"
       d="m 21.543977,102.52394 -16.3394985,8.3597 c 0,0 -0.286329,2.71324 -0.0057,6.52767 l 8.2526535,-4.76461 c -0.578384,-1.78735 0.191974,-3.78527 1.921115,-4.73944 0.626707,-0.34582 1.314734,-0.51887 2.000642,-0.5338 0.04695,-10e-4 0.0943,-10e-4 0.141361,-5.7e-4 1.460618,0.0144 2.891864,0.7431 3.679513,2.04689 1.182476,1.95761 0.464849,4.46819 -1.540488,5.57477 -1.443155,0.79638 -3.211744,0.67706 -4.530657,-0.18206 l -9.6058625,5.54592 c 0.319022,2.22953 0.851145,4.65413 1.719809,7.04214 l 9.4749215,-5.4704 c -0.428607,-1.71828 0.348736,-3.57305 1.995145,-4.48159 0.626707,-0.3458 1.314733,-0.519 2.000641,-0.53393 0.04695,-0.001 0.0943,-0.001 0.141419,-5.7e-4 1.460617,0.0144 2.891864,0.74309 3.679398,2.04688 1.182533,1.95761 0.464849,4.46818 -1.54043,5.57478 -1.530697,0.84464 -3.426678,0.65828 -4.764714,-0.3474 l -9.9280325,5.73193 c 1.0139187,2.1059 2.3379275,4.11444 4.0620875,5.85547 l 7.86235,-4.53941 c -0.426946,-1.71742 0.350512,-3.57057 1.996004,-4.47858 0.62665,-0.3458 1.314676,-0.51901 2.000641,-0.53394 0.04695,-10e-4 0.09424,-10e-4 0.141362,-5.7e-4 1.460617,0.0144 2.892035,0.74309 3.67957,2.04689 1.182534,1.95762 0.464734,4.46818 -1.540545,5.57476 -1.531728,0.84524 -3.429311,0.65804 -4.767462,-0.34942 l -7.202722,4.15855 c 1.927127,1.423 4.23992,2.55051 7.015729,3.23873 19.01045,-4.71335 16.339588,-30.00835 16.339588,-30.00835 z"
       id="path1364" />
    <path
       d="m 51.80191,129.34674 q 1.011,0 1.643,-0.55609 0.6319,-0.55609 0.6572,-1.4787 h 3.425 q -0.013,1.39023 -0.7583,2.55296 -0.7457,1.1501 -2.0475,1.79466 -1.2891,0.63192 -2.8562,0.63192 -2.9322,0 -4.6257,-1.85785 -1.6936,-1.87048 -1.6936,-5.15648 v -0.24013 q 0,-3.1596 1.681,-5.04273 1.6809,-1.88312 4.613,-1.88312 2.5656,0 4.1075,1.46605 1.5545,1.45342 1.5798,3.88 h -3.425 q -0.025,-1.06163 -0.6572,-1.71882 -0.632,-0.66984 -1.6683,-0.66984 -1.2765,0 -1.9337,0.93524 -0.6446,0.92261 -0.6446,3.00795 v 0.37915 q 0,2.11062 0.6446,3.03322 0.6446,0.92261 1.959,0.92261 z"
       style="font-style:normal;font-variant:normal;font-weight:bold;font-stretch:normal;font-size:25.8835px;line-height:1.25;font-family:Roboto;-inkscape-font-specification:'Roboto Bold';fill:#1c0732;fill-opacity:1;stroke-width:0.260659"
       id="path2123" />
    <path
       d="m 59.04371,125.07495 q 0,-2.03479 0.7836,-3.62723 0.7835,-1.59244 2.2496,-2.46449 1.4787,-0.87205 3.425,-0.87205 2.7678,0 4.5119,1.69355 1.7568,1.69355 1.959,4.60038 l 0.025,0.93525 q 0,3.14697 -1.7568,5.05537 -1.7567,1.89576 -4.7141,1.89576 -2.9574,0 -4.7268,-1.89576 -1.7567,-1.89577 -1.7567,-5.15648 z m 3.6525,0.26541 q 0,1.94631 0.733,2.98267 0.733,1.02371 2.098,1.02371 1.327,0 2.0727,-1.01108 0.7457,-1.02371 0.7457,-3.26071 0,-1.9084 -0.7457,-2.95739 -0.7457,-1.04899 -2.098,-1.04899 -1.3397,0 -2.0727,1.04899 -0.733,1.03635 -0.733,3.2228 z"
       style="font-style:normal;font-variant:normal;font-weight:bold;font-stretch:normal;font-size:25.8835px;line-height:1.25;font-family:Roboto;-inkscape-font-specification:'Roboto Bold';fill:#1c0732;fill-opacity:1;stroke-width:0.260659"
       id="path2125" />
    <path
       d="m 77.67271,118.36395 0.1138,1.52924 q 1.4534,-1.78201 3.9305,-1.78201 2.6415,0 3.6272,2.08534 1.4408,-2.08534 4.1075,-2.08534 2.2244,0 3.3113,1.30175 1.0869,1.28912 1.0869,3.89264 v 8.73315 h -3.6651 v -8.72051 q 0,-1.16274 -0.455,-1.69355 -0.455,-0.54345 -1.6051,-0.54345 -1.643,0 -2.2749,1.56716 l 0.013,9.39035 h -3.6525 v -8.70787 q 0,-1.18801 -0.4676,-1.71883 -0.4676,-0.53081 -1.5924,-0.53081 -1.5546,0 -2.2497,1.28912 v 9.66839 h -3.6525 v -13.67477 z"
       style="font-style:normal;font-variant:normal;font-weight:bold;font-stretch:normal;font-size:25.8835px;line-height:1.25;font-family:Roboto;-inkscape-font-specification:'Roboto Bold';fill:#1c0732;fill-opacity:1;stroke-width:0.260659"
       id="path2127" />
    <path
       d="m 108.96551,125.32772 q 0,3.15961 -1.4408,5.06801 -1.4282,1.89576 -3.8674,1.89576 -2.0727,0 -3.3492,-1.44078 v 6.4456 h -3.6525 v -18.93236 h 3.3871 l 0.1264,1.33967 q 1.3271,-1.59244 3.463,-1.59244 2.5276,0 3.9305,1.87048 1.4029,1.87049 1.4029,5.15648 z m -3.6525,-0.26541 q 0,-1.9084 -0.6825,-2.94475 -0.6698,-1.03635 -1.959,-1.03635 -1.7188,0 -2.3634,1.31439 v 5.59883 q 0.6699,1.35231 2.3887,1.35231 2.6162,0 2.6162,-4.28443 z"
       style="font-style:normal;font-variant:normal;font-weight:bold;font-stretch:normal;font-size:25.8835px;line-height:1.25;font-family:Roboto;-inkscape-font-specification:'Roboto Bold';fill:#1c0732;fill-opacity:1;stroke-width:0.260659"
       id="path2129" />
    <path
       d="m 115.08251,132.03872 h -3.6652 V 112.6261 h 3.6652 z"
       style="font-style:normal;font-variant:normal;font-weight:bold;font-stretch:normal;font-size:25.8835px;line-height:1.25;font-family:Roboto;-inkscape-font-specification:'Roboto Bold';fill:#1c0732;fill-opacity:1;stroke-width:0.260659"
       id="path2131" />
    <path
       d="m 123.19631,126.86961 2.5277,-8.50566 h 3.9179 l -5.4977,15.79803 -0.3033,0.72039 q -1.2259,2.67935 -4.0443,2.67935 -0.7962,0 -1.6177,-0.24013 v -2.76782 l 0.5561,0.0126 q 1.0363,0 1.5419,-0.31596 0.5181,-0.31596 0.8088,-1.04899 l 0.4297,-1.12482 -4.7899,-13.71269 h 3.9305 z"
       style="font-style:normal;font-variant:normal;font-weight:bold;font-stretch:normal;font-size:25.8835px;line-height:1.25;font-family:Roboto;-inkscape-font-specification:'Roboto Bold';fill:#1c0732;fill-opacity:1;stroke-width:0.260659"
       id="path2133" />
    <path
       d="m 134.50771,118.36395 0.1138,1.52924 q 1.4534,-1.78201 3.9305,-1.78201 2.6415,0 3.6273,2.08534 1.4407,-2.08534 4.1074,-2.08534 2.2244,0 3.3113,1.30175 1.0869,1.28912 1.0869,3.89264 v 8.73315 h -3.6651 v -8.72051 q 0,-1.16274 -0.455,-1.69355 -0.455,-0.54345 -1.6051,-0.54345 -1.643,0 -2.2749,1.56716 l 0.013,9.39035 h -3.6525 v -8.70787 q 0,-1.18801 -0.4676,-1.71883 -0.4676,-0.53081 -1.5924,-0.53081 -1.5546,0 -2.2497,1.28912 v 9.66839 h -3.6525 v -13.67477 z"
       style="font-style:normal;font-variant:normal;font-weight:bold;font-stretch:normal;font-size:25.8835px;line-height:1.25;font-family:Roboto;-inkscape-font-specification:'Roboto Bold';fill:#1c0732;fill-opacity:1;stroke-width:0.260659"
       id="path2135" />
    <path
       d="m 159.78461,132.29149 q -3.008,0 -4.9037,-1.84521 -1.8832,-1.84521 -1.8832,-4.91635 v -0.35387 q 0,-2.06007 0.7963,-3.67778 0.7962,-1.63036 2.2496,-2.50241 1.4661,-0.88469 3.3366,-0.88469 2.8057,0 4.4108,1.76938 1.6177,1.76938 1.6177,5.01745 v 1.49134 h -8.7079 q 0.1769,1.33967 1.0616,2.14853 0.8974,0.80886 2.2623,0.80886 2.1106,0 3.2986,-1.52925 l 1.7947,2.00951 q -0.8215,1.16273 -2.2244,1.81993 -1.4028,0.64456 -3.109,0.64456 z m -0.4171,-11.22292 q -1.0869,0 -1.7694,0.73303 -0.6698,0.73303 -0.8594,2.09798 h 5.0807 v -0.29069 q -0.025,-1.21329 -0.6572,-1.87048 -0.6319,-0.66984 -1.7947,-0.66984 z"
       style="font-style:normal;font-variant:normal;font-weight:bold;font-stretch:normal;font-size:25.8835px;line-height:1.25;font-family:Roboto;-inkscape-font-specification:'Roboto Bold';fill:#1c0732;fill-opacity:1;stroke-width:0.260659"
       id="path2137" />
    <path
       d="m 166.91271,125.10023 q 0,-3.19753 1.4281,-5.09329 1.4408,-1.89576 3.9306,-1.89576 1.9968,0 3.2986,1.49133 v -6.97641 h 3.6651 v 19.41262 h -3.2986 l -0.1769,-1.45342 q -1.365,1.70619 -3.5135,1.70619 -2.414,0 -3.88,-1.89576 -1.4534,-1.9084 -1.4534,-5.2955 z m 3.6525,0.2654 q 0,1.92104 0.6698,2.94476 0.6698,1.02371 1.9463,1.02371 1.6936,0 2.3887,-1.42814 v -5.39661 q -0.6825,-1.42814 -2.3634,-1.42814 -2.6414,0 -2.6414,4.28442 z"
       style="font-style:normal;font-variant:normal;font-weight:bold;font-stretch:normal;font-size:25.8835px;line-height:1.25;font-family:Roboto;-inkscape-font-specification:'Roboto Bold';fill:#1c0732;fill-opacity:1;stroke-width:0.260659"
       id="path2139" />
    <path
       d="m 185.92091,132.03872 h -3.6652 v -13.67477 h 3.6652 z m -3.88,-17.21353 q 0,-0.8215 0.5434,-1.35232 0.5561,-0.53081 1.504,-0.53081 0.9352,0 1.4913,0.53081 0.5561,0.53082 0.5561,1.35232 0,0.83413 -0.5687,1.36495 -0.5561,0.53081 -1.4787,0.53081 -0.9226,0 -1.4913,-0.53081 -0.5561,-0.53082 -0.5561,-1.36495 z"
       style="font-style:normal;font-variant:normal;font-weight:bold;font-stretch:normal;font-size:25.8835px;line-height:1.25;font-family:Roboto;-inkscape-font-specification:'Roboto Bold';fill:#1c0732;fill-opacity:1;stroke-width:0.260659"
       id="path2141" />
    <path
       d="m 196.85311,132.03872 q -0.2528,-0.4929 -0.3665,-1.22592 -1.3271,1.47869 -3.4503,1.47869 -2.0095,0 -3.3366,-1.16273 -1.3144,-1.16274 -1.3144,-2.93212 0,-2.17381 1.6051,-3.33654 1.6177,-1.16274 4.6636,-1.17538 h 1.6809 v -0.78358 q 0,-0.94788 -0.4929,-1.51661 -0.4802,-0.56873 -1.5292,-0.56873 -0.9226,0 -1.4535,0.44235 -0.5181,0.44234 -0.5181,1.21328 h -3.6525 q 0,-1.18801 0.733,-2.19908 0.733,-1.01108 2.0727,-1.57981 1.3397,-0.58136 3.0079,-0.58136 2.5277,0 4.0064,1.27648 1.4914,1.26384 1.4914,3.56403 v 5.92743 q 0.013,1.94631 0.5434,2.94475 v 0.21485 z m -3.0206,-2.54032 q 0.8089,0 1.4913,-0.35388 0.6825,-0.36651 1.0111,-0.97316 v -2.35074 h -1.3649 q -2.7426,0 -2.9195,1.89576 l -0.013,0.21485 q 0,0.68248 0.4803,1.12482 0.4803,0.44235 1.3144,0.44235 z"
       style="font-style:normal;font-variant:normal;font-weight:bold;font-stretch:normal;font-size:25.8835px;line-height:1.25;font-family:Roboto;-inkscape-font-specification:'Roboto Bold';fill:#1c0732;fill-opacity:1;stroke-width:0.260659"
       id="path2143" />
  </g>
</svg>
