<svg width="273" height="54" viewBox="0 0 273 54" fill="none" xmlns="http://www.w3.org/2000/svg">
<path d="M71.819 31.2771C70.3396 32.7564 68.4165 33.2988 66.4934 33.2988C62.7458 33.2988 59.5899 30.8333 59.5899 26.1981C59.5899 21.9574 62.5485 18.9987 66.592 18.9987C68.2686 18.9987 70.0438 19.6397 71.4738 20.9218L75.2707 16.9277C72.6079 14.3142 69.9451 13.328 66.4934 13.328C59.442 13.328 53.574 17.5687 53.574 26.1981C53.574 34.8275 59.442 39.0682 66.4934 39.0682C70.0931 39.0682 73.0517 37.9833 75.8624 35.222L71.819 31.2771Z" fill="white"/>
<path d="M80.8151 3.86029V38.3285H86.7817V3.86029H80.8151Z" fill="white"/>
<path d="M105.835 13.5252C98.0931 13.5252 93.2606 19.2453 93.2606 26.1981C93.2606 33.2002 97.9945 38.8709 105.884 38.8709C113.774 38.8709 118.557 33.2002 118.557 26.1981C118.557 19.2453 113.577 13.5252 105.835 13.5252V13.5252ZM105.884 18.9987C109.928 18.9987 112.492 22.5491 112.492 26.1981C112.492 29.8964 110.273 33.3481 105.884 33.3481C101.495 33.3481 99.2765 29.8964 99.2765 26.1981C99.2765 22.5491 101.545 18.9987 105.884 18.9987Z" fill="white"/>
<path d="M125.169 14.0183V26.7898C125.169 34.3343 129.41 38.723 135.229 38.723C138.631 38.723 140.949 37.5395 143.464 35.074L143.858 38.3778H149.233V14.0183H143.266V26.4446C143.266 30.1429 140.752 33.2495 137.053 33.2495C133.207 33.2495 131.185 30.4388 131.185 26.7405V14.0183H125.169Z" fill="white"/>
<path d="M168.685 19.048C172.482 19.048 175.737 21.908 175.737 26.1488C175.737 30.5374 172.482 33.2988 168.685 33.2988C164.839 33.2988 161.782 30.3895 161.782 26.1488C161.782 21.7601 164.839 19.048 168.685 19.048V19.048ZM176.131 3.86029V17.3221C174.701 14.8073 170.707 13.4266 168.143 13.4266C161.042 13.4266 155.766 17.7659 155.766 26.1488C155.766 34.1371 161.141 38.8709 168.291 38.8709C171.249 38.8709 174.257 37.8847 176.131 34.9754L176.526 38.3285H182.147V3.86029H176.131Z" fill="white"/>
<path d="M196.622 13.9197V43.5061C196.622 49.5221 194.009 53.4176 188.535 53.4176C186.76 53.4176 184.886 52.9245 183.16 51.7904L185.33 47.1058C186.365 47.5989 187.352 47.8455 188.239 47.7962C190.212 47.6976 190.656 46.1689 190.656 43.5061V13.9197H196.622ZM190.113 7.1148C190.113 11.7993 197.214 11.7993 197.214 7.1148C197.214 2.43028 190.113 2.43028 190.113 7.1148Z" fill="white"/>
<path d="M215.532 13.5252C207.79 13.5252 202.958 19.2453 202.958 26.1981C202.958 33.2002 207.692 38.8709 215.581 38.8709C223.471 38.8709 228.254 33.2002 228.254 26.1981C228.254 19.2453 223.274 13.5252 215.532 13.5252ZM215.581 18.9987C219.625 18.9987 222.189 22.5491 222.189 26.1981C222.189 29.8964 219.97 33.3481 215.581 33.3481C211.193 33.3481 208.974 29.8964 208.974 26.1981C208.974 22.5491 211.242 18.9987 215.581 18.9987Z" fill="white"/>
<path d="M240.734 13.9197V38.3285H234.719V13.9197H240.734ZM234.176 7.16412C234.176 11.8486 241.277 11.8486 241.277 7.16412C241.277 2.4796 234.176 2.4796 234.176 7.16412Z" fill="white"/>
<path d="M272.407 38.3285V25.557C272.407 17.9139 267.821 13.6238 262.101 13.6238C259.043 13.6238 256.578 14.8566 254.112 17.2728L253.718 13.969H248.343V38.3285H254.31V25.9022C254.31 22.2039 256.824 19.0973 260.523 19.0973C264.369 19.0973 266.391 21.908 266.391 25.6064V38.3285H272.407Z" fill="white"/>
<path d="M13.8925 0L0 24.389L13.8925 48.7781L41.1119 48.7314L37.7477 42.9047L17.2418 42.7523L6.79882 24.3889L17.2418 6.02551L37.7477 5.87305L41.1119 0.0463715L13.8925 0Z" fill="#8CD8CB" fill-opacity="0.4"/>
<path fill-rule="evenodd" clip-rule="evenodd" d="M14.1302 24.389L20.9844 12.2019L28.251 12.2149L35.5177 12.2019L42.3718 24.389L35.5177 36.5762L28.251 36.5636L20.9844 36.5762L14.1302 24.389ZM25.8867 30.5509H30.6154H32.2178L35.5659 24.3894L32.2178 18.2279H30.6154H25.8867H24.2843L20.9361 24.3894L24.2843 30.5509H25.8867Z" fill="#4AC3C1"/>
</svg>
